<svg width="392" height="413" xmlns="http://www.w3.org/2000/svg">
 <title>Books</title>

 <g>
  <title>background</title>
  <rect fill="none" id="canvas_background" height="415" width="394" y="-1" x="-1"/>
 </g>
 <g>
  <title>Layer 1</title>
  <circle id="svg_8" opacity="0.3" fill="#3d7bd9" r="158.769577" cy="224.525903" cx="211.093334"/>
  <polygon id="svg_9" fill="#3d7bd9" points="145.89129638671875,22.540023803710938 40.178314208984375,150.80401611328125 196.63330078125,335.44903564453125 300.9363098144531,212.82302856445312 145.89129638671875,22.540023803710938 "/>
  <polygon id="svg_10" opacity="0.1" points="145.89129638671875,22.540023803710938 40.178314208984375,150.80401611328125 196.63330078125,335.44903564453125 300.9363098144531,212.82302856445312 145.89129638671875,22.540023803710938 "/>
  <path id="svg_11" fill="#f2f2f2" d="m44.406964,152.214025l0,0a53.13136,53.13136 0 0 1 8.61915,-11.50844l97.09359,-98.43281s33.82807,-5.638 40.87559,11.276l-124.03627,101.48425l-22.55206,-2.819z"/>
  <path id="svg_12" fill="#3d7bd9" d="m39.473704,148.433107l143.76933,219.8825s14.095,9.86653 28.19007,4.22851l147.29308,-99.37l-156.45488,-236.79652l-140.9503,109.94126l-21.8473,2.11425z"/>
  <rect id="svg_13" fill="#3f3d56" transform="rotate(-35.70029830932617 -489.6167602539064,146.96492004394528) " height="2.28426" width="111.09199" y="479.87036" x="-9.577856"/>
  <rect id="svg_14" fill="#3f3d56" transform="rotate(-33.481319427490234 -569.35009765625,152.97389221191398) " height="214.62012" width="2.28442" y="525.595222" x="-23.631248"/>
  <rect id="svg_15" fill="#3f3d56" transform="rotate(-36.344058990478516 -585.29638671875,272.5901794433594) " height="2.285" width="118.96652" y="811.282969" x="23.298293"/>
  <rect id="svg_16" fill="#3f3d56" transform="rotate(-34.83794021606445 -501.7298583984376,217.6134033203124) " height="214.66085" width="2.28364" y="502.825063" x="154.635656"/>
  <rect id="svg_17" fill="#3f3d56" transform="rotate(-42.54484176635742 -479.6603393554687,196.89907836914062) " height="1.4087" width="151.38646" y="517.117828" x="-51.390969"/>
  <rect id="svg_18" fill="#3f3d56" transform="rotate(-41.43846893310547 -480.6388549804687,190.28768920898435) " height="1.41013" width="155.49191" y="511.665049" x="-47.657565"/>
  <rect id="svg_19" fill="#3f3d56" transform="rotate(-39.81272888183594 -482.63360595703136,176.8183441162109) " height="1.41026" width="157.53272" y="499.238654" x="-45.616281"/>
 </g>
</svg>