<svg width="1126.19355" height="855" xmlns="http://www.w3.org/2000/svg">
 <title>code review</title>

 <g>
  <title>background</title>
  <rect fill="none" id="canvas_background" height="444.106625" width="732.528567" y="-1" x="-1"/>
 </g>
 <g>
  <title>Layer 1</title>
  <path id="svg_1" fill="#f2f2f2" d="m542.642049,755.93794c-242.39884,-18.44657 -531.47073,-206.26628 -516.75365,-399.6574s294.68632,-373.42208 537.08515,-354.97554s381.93189,379.862 367.21481,573.25309s-145.14748,199.82642 -387.54631,181.37985z"/>
  <ellipse id="svg_2" fill="#aaaaaa" ry="31" rx="506" cy="753.777778" cx="565.19355"/>
  <ellipse id="svg_3" opacity="0.1" ry="20.5" rx="431" cy="755.5" cx="565.19355"/>
  <rect id="svg_6" fill="#3f3d56" height="590" width="752" y="162" x="196.19355"/>
  <path id="svg_7" fill="#f2f2f2" d="m563.638121,242.62914l-185.51772,0a2.25143,2.25143 0 1 1 0,-4.50285l185.51772,0a2.25143,2.25143 0 0 1 0,4.50285z"/>
  <path id="svg_8" fill="#f2f2f2" d="m766.716971,267.39486l-291.78514,0a2.25143,2.25143 0 0 1 0,-4.50286l291.78514,0a2.25143,2.25143 0 1 1 0,4.50286z"/>
  <path id="svg_9" fill="#f2f2f2" d="m564.538691,292.16057l-185.51772,0a2.25143,2.25143 0 1 1 0,-4.50286l185.51772,0a2.25143,2.25143 0 1 1 0,4.50286z"/>
  <path id="svg_10" fill="#f2f2f2" d="m766.716971,292.61086l-185.51771,0a2.25143,2.25143 0 0 1 0,-4.50286l185.51771,0a2.25143,2.25143 0 1 1 0,4.50286z"/>
  <path id="svg_11" fill="#f2f2f2" d="m564.988971,316.92629l-185.51771,0a2.25143,2.25143 0 0 1 0,-4.50286l185.51771,0a2.25143,2.25143 0 1 1 0,4.50286z"/>
  <path id="svg_12" fill="#f2f2f2" d="m565.439261,341.692l-185.51772,0a2.25143,2.25143 0 0 1 0,-4.50286l185.51772,0a2.25143,2.25143 0 1 1 0,4.50286z"/>
  <path id="svg_13" fill="#f2f2f2" d="m649.642691,243.07943l-53.13372,0a2.25143,2.25143 0 0 1 0,-4.50286l53.13372,0a2.25143,2.25143 0 1 1 0,4.50286z"/>
  <path id="svg_14" fill="#f2f2f2" d="m649.642691,316.92629l-53.13372,0a2.25143,2.25143 0 0 1 0,-4.50286l53.13372,0a2.25143,2.25143 0 1 1 0,4.50286z"/>
  <path id="svg_15" fill="#f2f2f2" d="m649.642691,341.24171l-53.13372,0a2.25143,2.25143 0 1 1 0,-4.50285l53.13372,0a2.25143,2.25143 0 1 1 0,4.50285z"/>
  <path id="svg_16" fill="#f2f2f2" d="m738.799261,341.24171l-53.13372,0a2.25143,2.25143 0 0 1 0,-4.50285l53.13372,0a2.25143,2.25143 0 1 1 0,4.50285z"/>
  <path id="svg_17" fill="#f2f2f2" d="m430.803831,267.39486l-53.13371,0a2.25143,2.25143 0 0 1 0,-4.50286l53.13371,0a2.25143,2.25143 0 0 1 0,4.50286z"/>
  <path id="svg_18" fill="#f2f2f2" d="m563.863261,607.36057l-185.51772,0a2.25143,2.25143 0 0 1 0,-4.50286l185.51772,0a2.25143,2.25143 0 0 1 0,4.50286z"/>
  <path id="svg_19" fill="#f2f2f2" d="m562.962691,656.892l-185.51772,0a2.25143,2.25143 0 1 1 0,-4.50286l185.51772,0a2.25143,2.25143 0 0 1 0,4.50286z"/>
  <path id="svg_20" fill="#f2f2f2" d="m563.412971,681.65771l-185.51771,0a2.25143,2.25143 0 1 1 0,-4.50285l185.51771,0a2.25143,2.25143 0 1 1 0,4.50285z"/>
  <path id="svg_21" fill="#f2f2f2" d="m642.663261,657.34229l-53.13372,0a2.25143,2.25143 0 0 1 0,-4.50286l53.13372,0a2.25143,2.25143 0 0 1 0,4.50286z"/>
  <path id="svg_22" fill="#f2f2f2" d="m642.663261,681.65771l-53.13372,0a2.25142,2.25142 0 0 1 0,-4.50285l53.13372,0a2.25142,2.25142 0 1 1 0,4.50285z"/>
  <path id="svg_23" fill="#f2f2f2" d="m731.819831,657.34229l-53.13371,0a2.25143,2.25143 0 1 1 0,-4.50286l53.13371,0a2.25143,2.25143 0 0 1 0,4.50286z"/>
  <path id="svg_24" fill="#f2f2f2" d="m766.942121,632.12629l-291.78515,0a2.25143,2.25143 0 0 1 0,-4.50286l291.78515,0a2.25143,2.25143 0 0 1 0,4.50286z"/>
  <path id="svg_25" fill="#f2f2f2" d="m431.028971,632.12629l-53.13371,0a2.25143,2.25143 0 0 1 0,-4.50286l53.13371,0a2.25143,2.25143 0 0 1 0,4.50286z"/>
  <path id="svg_26" fill="#f2f2f2" d="m766.942121,706.87371l-291.78515,0a2.25143,2.25143 0 1 1 0,-4.50285l291.78515,0a2.25142,2.25142 0 0 1 0,4.50285z"/>
  <path id="svg_27" fill="#f2f2f2" d="m431.028971,706.87371l-53.13371,0a2.25143,2.25143 0 1 1 0,-4.50285l53.13371,0a2.25143,2.25143 0 1 1 0,4.50285z"/>
  <polygon id="svg_28" fill="#3d7bd9" points="519.06 401.13 447.014 472.275 519.06 543.42 535.27 527.21 480.786 472.725 535.72 417.79 519.06 401.13"/>
  <polygon id="svg_29" fill="#3d7bd9" points="625.327 401.13 697.373 472.275 625.327 543.42 609.117 527.21 663.602 472.725 608.667 417.79 625.327 401.13"/>
  <circle id="svg_30" fill="#3d7bd9" r="9" cy="177" cx="216.19355"/>
  <circle id="svg_31" fill="#3d7bd9" r="9" cy="177" cx="240.19355"/>
  <circle id="svg_32" fill="#3d7bd9" r="9" cy="177" cx="264.19355"/>
  <rect id="svg_33" opacity="0.1" height="3" width="752" y="192" x="196.19355"/>
 </g>
</svg>