<svg width="802" height="642" xmlns="http://www.w3.org/2000/svg" xmlns:xlink="http://www.w3.org/1999/xlink">
 <defs>
  <linearGradient y2="0.500011" x2="1" y1="0.500011" x1="0" id="de77dbfb-dd49-4fbc-923c-7946454dd32b">
   <stop stop-opacity="0.25" stop-color="gray" offset="0"/>
   <stop stop-opacity="0.12" stop-color="gray" offset="0.54"/>
   <stop stop-opacity="0.1" stop-color="gray" offset="1"/>
  </linearGradient>
  <linearGradient xlink:href="#de77dbfb-dd49-4fbc-923c-7946454dd32b" y2="536.32" x2="366.37" y1="536.32" x1="124.23" id="6bfe4e4d-6140-4dd1-aeb6-1c24ce52378d"/>
  <linearGradient xlink:href="#de77dbfb-dd49-4fbc-923c-7946454dd32b" y2="285.31" x2="734" y1="285.31" x1="366.37" id="eefef033-b9dd-454d-be9c-2768628c2c1b"/>
  <linearGradient xlink:href="#de77dbfb-dd49-4fbc-923c-7946454dd32b" y2="285.31" x2="366.37" y1="285.31" x1="0" id="56c8a114-3a82-4d1f-807f-287066e4913e"/>
  <linearGradient xlink:href="#de77dbfb-dd49-4fbc-923c-7946454dd32b" y2="255.38" x2="276.64" y1="421.19" x1="276.64" id="d46a1a66-2ac6-4fbc-9777-fd8606b62c04"/>
  <linearGradient xlink:href="#de77dbfb-dd49-4fbc-923c-7946454dd32b" y2="337.56" x2="364.55" y1="337.56" x1="188.97" id="81b747dc-c51a-4f4d-a150-34ccfb0c2b19"/>
  <linearGradient xlink:href="#de77dbfb-dd49-4fbc-923c-7946454dd32b" y2="296.63" x2="232.11" y1="296.63" x1="202.5" id="94dacd35-ade1-481d-ab7d-e71442837947"/>
  <linearGradient xlink:href="#de77dbfb-dd49-4fbc-923c-7946454dd32b" y2="284.79" x2="358.7" y1="284.79" x1="240.99" id="5f9514a3-5a07-41ce-8d35-51c596d713f8"/>
  <linearGradient xlink:href="#de77dbfb-dd49-4fbc-923c-7946454dd32b" y2="293.67" x2="358.7" y1="293.67" x1="240.99" id="5f23502f-63c8-483a-bbd9-acad51c7384b"/>
  <linearGradient xlink:href="#de77dbfb-dd49-4fbc-923c-7946454dd32b" y2="325.92" x2="358.7" y1="325.92" x1="199.54" id="1d6905ae-9130-4997-8264-fbb8cedb035a"/>
  <linearGradient xlink:href="#de77dbfb-dd49-4fbc-923c-7946454dd32b" y2="334.8" x2="358.7" y1="334.8" x1="199.54" id="41900377-e2ec-4e09-a282-5ca05bd60f31"/>
  <linearGradient xlink:href="#de77dbfb-dd49-4fbc-923c-7946454dd32b" y2="346.64" x2="358.7" y1="346.64" x1="199.54" id="dd8a4518-18b3-4e66-a30f-5d540a356d99"/>
  <linearGradient xlink:href="#de77dbfb-dd49-4fbc-923c-7946454dd32b" y2="355.53" x2="291.33" y1="355.53" x1="199.54" id="73297694-c0f6-49f7-84f0-ecf1ccd19cc8"/>
  <linearGradient xlink:href="#de77dbfb-dd49-4fbc-923c-7946454dd32b" y2="367.34" x2="358.7" y1="367.34" x1="199.54" id="493ae8f5-00a4-414a-a514-466a18e555de"/>
  <linearGradient xlink:href="#de77dbfb-dd49-4fbc-923c-7946454dd32b" y2="376.22" x2="358.7" y1="376.22" x1="199.54" id="3b1e923e-cefa-4350-8e60-09975381dcc2"/>
  <linearGradient xlink:href="#de77dbfb-dd49-4fbc-923c-7946454dd32b" y2="388.07" x2="358.7" y1="388.07" x1="199.54" id="0a8186d7-b2d8-4c25-b395-9cdd58a3b32d"/>
  <linearGradient xlink:href="#de77dbfb-dd49-4fbc-923c-7946454dd32b" y2="396.95" x2="291.33" y1="396.95" x1="199.54" id="80621535-6eff-45be-9aff-a177b1fc6ef5"/>
  <linearGradient xlink:href="#de77dbfb-dd49-4fbc-923c-7946454dd32b" y2="293.69" x2="303.76" y1="459.51" x1="303.76" id="dadd1f9f-4435-4897-9b35-9a7b7fdf052b"/>
  <linearGradient xlink:href="#de77dbfb-dd49-4fbc-923c-7946454dd32b" y2="375.88" x2="391.67" y1="375.88" x1="216.09" id="f16d3271-277e-4f15-bb07-00d21db963c6"/>
  <linearGradient xlink:href="#de77dbfb-dd49-4fbc-923c-7946454dd32b" y2="334.95" x2="259.23" y1="334.95" x1="229.62" id="6844f77f-b831-40d5-baa2-4d635352d65d"/>
  <linearGradient xlink:href="#de77dbfb-dd49-4fbc-923c-7946454dd32b" y2="323.11" x2="385.83" y1="323.11" x1="268.12" id="de24e734-f614-4284-b96a-2aa86e10747c"/>
  <linearGradient xlink:href="#de77dbfb-dd49-4fbc-923c-7946454dd32b" y2="331.99" x2="385.83" y1="331.99" x1="268.12" id="a5efd049-cacb-4880-98c4-916efb717ead"/>
  <linearGradient xlink:href="#de77dbfb-dd49-4fbc-923c-7946454dd32b" y2="364.23" x2="385.83" y1="364.23" x1="226.66" id="7e130a40-8f7a-4850-a2d6-6e0275737139"/>
  <linearGradient xlink:href="#de77dbfb-dd49-4fbc-923c-7946454dd32b" y2="373.12" x2="385.83" y1="373.12" x1="226.66" id="2749f835-9066-4c26-94de-8091e8f0d23b"/>
  <linearGradient xlink:href="#de77dbfb-dd49-4fbc-923c-7946454dd32b" y2="384.96" x2="385.83" y1="384.96" x1="226.66" id="83d2a205-1aab-4c1f-9a0d-e371e1497593"/>
  <linearGradient xlink:href="#de77dbfb-dd49-4fbc-923c-7946454dd32b" y2="393.84" x2="318.45" y1="393.84" x1="226.66" id="eaa6c3f5-6275-43ae-b3c2-02cbd6aead80"/>
  <linearGradient xlink:href="#de77dbfb-dd49-4fbc-923c-7946454dd32b" y2="405.66" x2="385.83" y1="405.66" x1="226.66" id="e1588a1d-b1ef-45da-83e8-d054f8a4e057"/>
  <linearGradient xlink:href="#de77dbfb-dd49-4fbc-923c-7946454dd32b" y2="414.54" x2="385.83" y1="414.54" x1="226.66" id="34a60174-261b-4ce6-8479-6deff5e9df2e"/>
  <linearGradient xlink:href="#de77dbfb-dd49-4fbc-923c-7946454dd32b" y2="426.39" x2="385.83" y1="426.39" x1="226.66" id="b1d4060a-bab6-41d9-9d3f-50faf13ce905"/>
  <linearGradient xlink:href="#de77dbfb-dd49-4fbc-923c-7946454dd32b" y2="435.27" x2="318.45" y1="435.27" x1="226.66" id="001da48e-f69d-4ab6-b1e5-b6877c600ca3"/>
  <linearGradient xlink:href="#de77dbfb-dd49-4fbc-923c-7946454dd32b" y2="315.15" x2="396.27" y1="498.11" x1="396.27" id="a9c4be37-9b27-4af0-b082-7a197d7b08af"/>
  <linearGradient xlink:href="#de77dbfb-dd49-4fbc-923c-7946454dd32b" y2="406.08" x2="470.82" y1="406.08" x1="323.2" id="1be8f728-2df0-4ca7-b72e-42c383ba6409"/>
  <linearGradient xlink:href="#de77dbfb-dd49-4fbc-923c-7946454dd32b" y2="409.41" x2="630.01" y1="435.54" x1="630.01" id="2c239d92-4298-42ac-b5f5-112261fb3719"/>
  <linearGradient xlink:href="#de77dbfb-dd49-4fbc-923c-7946454dd32b" y2="356.75" x2="414.68" y1="356.75" x1="379.34" id="b25a2850-8713-435e-a7f6-77c24068e559"/>
  <linearGradient xlink:href="#de77dbfb-dd49-4fbc-923c-7946454dd32b" y2="345.34" x2="404.37" y1="345.34" x1="389.65" id="098fbc02-4549-4943-b845-c35e13d002ec"/>
  <linearGradient xlink:href="#de77dbfb-dd49-4fbc-923c-7946454dd32b" y2="397.51" x2="449.1" y1="397.51" x1="345.29" id="42d5ad37-1f95-4efe-a9d6-9d5a7598317f"/>
  <linearGradient xlink:href="#de77dbfb-dd49-4fbc-923c-7946454dd32b" y2="426.59" x2="449.1" y1="426.59" x1="345.29" id="60652df1-b02f-405a-bafe-63f1323ca3b9"/>
  <linearGradient xlink:href="#de77dbfb-dd49-4fbc-923c-7946454dd32b" y2="434.32" x2="449.1" y1="434.32" x1="345.29" id="d60c104b-effa-4916-ba15-d56398cc91aa"/>
  <linearGradient xlink:href="#de77dbfb-dd49-4fbc-923c-7946454dd32b" y2="418.86" x2="389.1" y1="418.86" x1="345.29" id="ba8a67f6-dfe8-450d-b63e-7f0d0a91ef94"/>
  <linearGradient xlink:href="#de77dbfb-dd49-4fbc-923c-7946454dd32b" y2="418.86" x2="449.1" y1="418.86" x1="416.34" id="78ba6fe6-ecca-4e26-a377-427f9aaa9d9c"/>
  <linearGradient xlink:href="#de77dbfb-dd49-4fbc-923c-7946454dd32b" y2="452.36" x2="414.5" y1="452.36" x1="381.73" id="1435728f-56d7-4408-a8a2-001738c99643"/>
  <linearGradient xlink:href="#de77dbfb-dd49-4fbc-923c-7946454dd32b" y2="565.47" x2="366.37" y1="565.47" x1="124.23" id="9b7fa617-5070-4448-ba88-12c8e3ef9a97"/>
  <linearGradient xlink:href="#de77dbfb-dd49-4fbc-923c-7946454dd32b" y2="565.47" x2="608.5" y1="565.47" x1="366.37" id="070ec920-a668-4755-a0ad-3a8615a89315"/>
  <linearGradient xlink:href="#de77dbfb-dd49-4fbc-923c-7946454dd32b" y2="631.39" x2="608.5" y1="631.39" x1="512.15" id="e36d19af-3b30-4690-9806-5999beea7781"/>
  <linearGradient xlink:href="#de77dbfb-dd49-4fbc-923c-7946454dd32b" y2="338.42" x2="517.49" y1="407.03" x1="517.49" id="a6dd6711-50c1-4fdb-98f5-9ce3faa6868a"/>
  <linearGradient xlink:href="#de77dbfb-dd49-4fbc-923c-7946454dd32b" y2="372.87" x2="552.07" y1="372.87" x1="482.9" id="c3285259-7532-4ca4-be71-649fbde17c17"/>
  <linearGradient xlink:href="#de77dbfb-dd49-4fbc-923c-7946454dd32b" y2="415.97" x2="750.49" y1="435.86" x1="750.49" id="a29959c1-757f-4596-a472-135c84a27060"/>
  <linearGradient xlink:href="#de77dbfb-dd49-4fbc-923c-7946454dd32b" y2="359.71" x2="530.93" y1="359.71" x1="504.04" id="d4e4a16f-6e37-4db9-afc4-c764cb698323"/>
  <linearGradient xlink:href="#de77dbfb-dd49-4fbc-923c-7946454dd32b" y2="351.03" x2="523.09" y1="351.03" x1="511.89" id="cff56feb-0464-47d9-bfaf-95cdd3d9140f"/>
  <linearGradient xlink:href="#de77dbfb-dd49-4fbc-923c-7946454dd32b" y2="380.71" x2="530.51" y1="380.71" x1="505.58" id="03628828-f4ed-4a34-b456-49742169550b"/>
  <linearGradient xlink:href="#de77dbfb-dd49-4fbc-923c-7946454dd32b" y2="386.87" x2="538.77" y1="386.87" x1="496.2" id="563972f9-7c15-4736-8e1d-5831e19f738d"/>
  <linearGradient xlink:href="#de77dbfb-dd49-4fbc-923c-7946454dd32b" y2="128.69" x2="358.76" y1="204.69" x1="358.76" id="ac84c3f4-4913-47be-bf79-f44b0f4db4c8"/>
  <linearGradient xlink:href="#de77dbfb-dd49-4fbc-923c-7946454dd32b" y2="166.78" x2="403.76" y1="166.78" x1="313.57" id="08e6e94c-7f78-4a4a-b5ca-eacc99124954"/>
  <linearGradient xlink:href="#de77dbfb-dd49-4fbc-923c-7946454dd32b" y2="138.3" x2="403.76" y1="138.3" x1="313.57" id="5d8bf870-f7e1-4226-8bb2-e6c031939852"/>
  <linearGradient xlink:href="#de77dbfb-dd49-4fbc-923c-7946454dd32b" y2="157.17" x2="396.57" y1="157.17" x1="320.76" id="ca57a38f-5e0b-4f9a-ad35-d20a6a3fb589"/>
  <linearGradient xlink:href="#de77dbfb-dd49-4fbc-923c-7946454dd32b" y2="170.73" x2="376.09" y1="170.73" x1="320.76" id="1fd9aa29-bfa0-42ec-baa0-a47f4919731f"/>
  <linearGradient xlink:href="#de77dbfb-dd49-4fbc-923c-7946454dd32b" y2="176.3" x2="356.69" y1="176.3" x1="320.76" id="2b0d4ee5-bed4-41f8-93bf-55bbaa1359c2"/>
  <linearGradient xlink:href="#de77dbfb-dd49-4fbc-923c-7946454dd32b" y2="181.87" x2="368.19" y1="181.87" x1="320.76" id="ffea16a4-8b84-4b92-9000-f48bb1ea4454"/>
  <linearGradient xlink:href="#de77dbfb-dd49-4fbc-923c-7946454dd32b" y2="187.44" x2="376.09" y1="187.44" x1="320.76" id="bd2a8e8b-f3e8-4ae2-849a-acfa94ff2f68"/>
  <linearGradient xlink:href="#de77dbfb-dd49-4fbc-923c-7946454dd32b" y2="193.01" x2="339.26" y1="193.01" x1="320.76" id="f06efa35-a8e5-4b8b-afbe-7609fb33c535"/>
  <linearGradient xlink:href="#de77dbfb-dd49-4fbc-923c-7946454dd32b" y2="185.76" x2="505.86" y1="279.95" x1="505.86" id="b384c48b-fa09-4d02-bdd3-cc00491ed01d"/>
  <linearGradient xlink:href="#de77dbfb-dd49-4fbc-923c-7946454dd32b" y2="232.96" x2="561.64" y1="232.96" x1="449.86" id="5e00f217-30a6-42ff-b3ae-1a90f6b4187c"/>
  <linearGradient xlink:href="#de77dbfb-dd49-4fbc-923c-7946454dd32b" y2="197.67" x2="561.64" y1="197.67" x1="449.86" id="dc2aebd1-2b83-4119-bcc5-a741f826754f"/>
  <linearGradient xlink:href="#de77dbfb-dd49-4fbc-923c-7946454dd32b" y2="221.05" x2="552.73" y1="221.05" x1="458.76" id="93231171-c5fd-4b16-9e58-5bf8089a9216"/>
  <linearGradient xlink:href="#de77dbfb-dd49-4fbc-923c-7946454dd32b" y2="237.86" x2="527.35" y1="237.86" x1="458.76" id="50b8a9d8-eeba-4f66-80ff-241f1361769d"/>
  <linearGradient xlink:href="#de77dbfb-dd49-4fbc-923c-7946454dd32b" y2="244.77" x2="503.3" y1="244.77" x1="458.76" id="1c46a2fd-722a-4782-991f-2753aa584a85"/>
  <linearGradient xlink:href="#de77dbfb-dd49-4fbc-923c-7946454dd32b" y2="251.67" x2="517.55" y1="251.67" x1="458.76" id="20746c70-8f38-4111-a8e7-6be16dcdc432"/>
  <linearGradient xlink:href="#de77dbfb-dd49-4fbc-923c-7946454dd32b" y2="258.57" x2="527.35" y1="258.57" x1="458.76" id="ff2c3201-2e6a-4c49-9262-7d1610fa9938"/>
  <linearGradient xlink:href="#de77dbfb-dd49-4fbc-923c-7946454dd32b" y2="265.48" x2="481.7" y1="265.48" x1="458.76" id="f77a8c52-f808-4319-bd14-9cea9a000094"/>
  <linearGradient xlink:href="#de77dbfb-dd49-4fbc-923c-7946454dd32b" y2="220.94" x2="490.38" y1="220.94" x1="463.66" id="fc3b52e5-7958-4225-afa3-e6f186f3a800"/>
  <linearGradient xlink:href="#de77dbfb-dd49-4fbc-923c-7946454dd32b" y2="472.93" x2="365.73" y1="472.93" x1="121.07" id="2b5a7ca0-2cf9-4df0-8cdd-e53d9708a5ec"/>
  <linearGradient xlink:href="#de77dbfb-dd49-4fbc-923c-7946454dd32b" y2="472.93" x2="610.4" y1="472.93" x1="365.73" id="90935925-bac4-44a4-bec6-4c83fa48424d"/>
  <linearGradient xlink:href="#de77dbfb-dd49-4fbc-923c-7946454dd32b" y2="448.21" x2="366.37" y1="448.21" x1="0" id="f90ef38d-8fba-46a7-8e54-2d901dfd8f20"/>
  <linearGradient xlink:href="#de77dbfb-dd49-4fbc-923c-7946454dd32b" y2="448.21" x2="734" y1="448.21" x1="366.37" id="7f322de3-7e3f-4ca5-a3a0-2f913675712e"/>
  <linearGradient xlink:href="#de77dbfb-dd49-4fbc-923c-7946454dd32b" y2="253.24" x2="279.92" y1="417.64" x1="279.92" id="7e9b6443-5111-46ce-82ab-312f92c279a9"/>
  <linearGradient xlink:href="#de77dbfb-dd49-4fbc-923c-7946454dd32b" y2="291.23" x2="306.82" y1="455.63" x1="306.82" id="0bd401ed-ef45-4e9e-bf5f-b77781a1e2b2"/>
  <linearGradient xlink:href="#de77dbfb-dd49-4fbc-923c-7946454dd32b" y2="312.51" x2="398.54" y1="493.9" x1="398.54" id="8c2d82fb-4f28-4e85-a5ca-7392731b2ba5"/>
  <linearGradient xlink:href="#de77dbfb-dd49-4fbc-923c-7946454dd32b" y2="335.58" x2="518.71" y1="403.6" x1="518.71" id="e62c516b-7ef4-49fd-a0a5-f3f48af03dcb"/>
  <linearGradient xlink:href="#de77dbfb-dd49-4fbc-923c-7946454dd32b" y2="127.64" x2="361.34" y1="202.99" x1="361.34" id="ced5db71-211d-4559-8944-028d2e60ece5"/>
  <linearGradient xlink:href="#de77dbfb-dd49-4fbc-923c-7946454dd32b" y2="184.22" x2="507.18" y1="277.61" x1="507.18" id="4adf524d-df88-48e8-970a-1ad7028c73c0"/>
 </defs>
 <title>collecting</title>
 <g>
  <title>background</title>
  <rect fill="none" id="canvas_background" height="644" width="804" y="-1" x="-1"/>
 </g>
 <g>
  <title>Layer 1</title>
  <g id="svg_1" opacity="0.7">
   <polygon id="svg_2" fill="url(#de77dbfb-dd49-4fbc-923c-7946454dd32b)" points="631.6053314208984,244.22909545898438 389.47532653808594,185.91909790039062 389.47532653808594,642.2890625 631.6053314208984,578.9091186523438 631.6053314208984,244.22909545898438 "/>
   <g id="svg_3" opacity="0.1">
    <polygon id="svg_4" fill="url(#de77dbfb-dd49-4fbc-923c-7946454dd32b)" points="631.6053314208984,244.22909545898438 389.47532653808594,185.91909790039062 389.47532653808594,642.2890625 631.6053314208984,578.9091186523438 631.6053314208984,244.22909545898438 "/>
   </g>
   <polygon id="svg_5" fill="url(#6bfe4e4d-6140-4dd1-aeb6-1c24ce52378d)" points="147.33533477783203,244.22909545898438 389.47532653808594,185.91909790039062 389.47532653808594,642.2890625 147.33533477783203,580.1690673828125 147.33533477783203,244.22909545898438 "/>
   <g id="svg_6" opacity="0.17">
    <polygon id="svg_7" fill="url(#6bfe4e4d-6140-4dd1-aeb6-1c24ce52378d)" points="147.33533477783203,244.22909545898438 389.47532653808594,185.91909790039062 389.47532653808594,642.2890625 147.33533477783203,580.1690673828125 147.33533477783203,244.22909545898438 "/>
   </g>
   <polygon id="svg_8" fill="url(#eefef033-b9dd-454d-be9c-2768628c2c1b)" points="389.47532653808594,185.91909790039062 514.9753265380859,81.96908569335938 757.1053314208984,144.08908081054688 631.6053314208984,244.22909545898438 389.47532653808594,185.91909790039062 "/>
   <polygon id="svg_9" fill="url(#56c8a114-3a82-4d1f-807f-287066e4913e)" points="23.105331420898438,145.34909057617188 147.33533477783203,244.22909545898438 389.47532653808594,185.91909790039062 266.5053253173828,81.96908569335938 23.105331420898438,145.34909057617188 "/>
   <g id="svg_10" opacity="0.05">
    <polygon id="svg_11" fill="url(#56c8a114-3a82-4d1f-807f-287066e4913e)" points="23.105331420898438,145.34909057617188 147.33533477783203,244.22909545898438 389.47532653808594,185.91909790039062 266.5053253173828,81.96908569335938 23.105331420898438,145.34909057617188 "/>
   </g>
   <g id="svg_12" opacity="0.5">
    <rect id="svg_13" fill="url(#d46a1a66-2ac6-4fbc-9777-fd8606b62c04)" ry="4.5" rx="4.5" height="165.82" width="179.72" y="133.169093" x="209.885331"/>
   </g>
   <rect id="svg_14" fill="url(#81b747dc-c51a-4f4d-a150-34ccfb0c2b19)" ry="4.5" rx="4.5" height="161.8" width="175.58" y="134.449093" x="212.075331"/>
   <rect id="svg_15" fill="url(#94dacd35-ade1-481d-ab7d-e71442837947)" ry="4.5" rx="4.5" height="26.65" width="29.61" y="161.099093" x="225.605331"/>
   <rect id="svg_16" fill="url(#5f9514a3-5a07-41ce-8d35-51c596d713f8)" ry="0.8" rx="0.8" height="2.96" width="117.71" y="161.099093" x="264.095331"/>
   <rect id="svg_17" fill="url(#5f23502f-63c8-483a-bbd9-acad51c7384b)" ry="0.8" rx="0.8" height="2.96" width="117.71" y="169.979093" x="264.095331"/>
   <rect id="svg_18" fill="url(#1d6905ae-9130-4997-8264-fbb8cedb035a)" ry="0.8" rx="0.8" height="2.96" width="159.16" y="202.229093" x="222.645331"/>
   <rect id="svg_19" fill="url(#41900377-e2ec-4e09-a282-5ca05bd60f31)" ry="0.8" rx="0.8" height="2.96" width="159.16" y="211.109093" x="222.645331"/>
   <rect id="svg_20" fill="url(#dd8a4518-18b3-4e66-a30f-5d540a356d99)" ry="0.8" rx="0.8" height="2.96" width="159.16" y="222.949093" x="222.645331"/>
   <rect id="svg_21" fill="url(#73297694-c0f6-49f7-84f0-ecf1ccd19cc8)" ry="0.8" rx="0.8" height="2.96" width="91.79" y="231.839093" x="222.645331"/>
   <rect id="svg_22" fill="url(#493ae8f5-00a4-414a-a514-466a18e555de)" ry="0.8" rx="0.8" height="2.96" width="159.16" y="243.649093" x="222.645331"/>
   <rect id="svg_23" fill="url(#3b1e923e-cefa-4350-8e60-09975381dcc2)" ry="0.8" rx="0.8" height="2.96" width="159.16" y="252.529093" x="222.645331"/>
   <rect id="svg_24" fill="url(#0a8186d7-b2d8-4c25-b395-9cdd58a3b32d)" ry="0.8" rx="0.8" height="2.96" width="159.16" y="264.379093" x="222.645331"/>
   <rect id="svg_25" fill="url(#80621535-6eff-45be-9aff-a177b1fc6ef5)" ry="0.8" rx="0.8" height="2.96" width="91.79" y="273.259093" x="222.645331"/>
   <g id="svg_26" opacity="0.5">
    <rect id="svg_27" fill="url(#dadd1f9f-4435-4897-9b35-9a7b7fdf052b)" ry="4.5" rx="4.5" height="165.82" width="179.72" y="171.479093" x="237.005331"/>
   </g>
   <rect id="svg_28" fill="url(#f16d3271-277e-4f15-bb07-00d21db963c6)" ry="4.5" rx="4.5" height="161.8" width="175.58" y="172.769093" x="239.195331"/>
   <rect id="svg_29" fill="url(#6844f77f-b831-40d5-baa2-4d635352d65d)" ry="4.5" rx="4.5" height="26.65" width="29.61" y="199.419093" x="252.725331"/>
   <rect id="svg_30" fill="url(#de24e734-f614-4284-b96a-2aa86e10747c)" ry="0.8" rx="0.8" height="2.96" width="117.71" y="199.419093" x="291.225331"/>
   <rect id="svg_31" fill="url(#a5efd049-cacb-4880-98c4-916efb717ead)" ry="0.8" rx="0.8" height="2.96" width="117.71" y="208.299093" x="291.225331"/>
   <rect id="svg_32" fill="url(#7e130a40-8f7a-4850-a2d6-6e0275737139)" ry="0.8" rx="0.8" height="2.96" width="159.16" y="240.539093" x="249.765331"/>
   <rect id="svg_33" fill="url(#2749f835-9066-4c26-94de-8091e8f0d23b)" ry="0.8" rx="0.8" height="2.96" width="159.16" y="249.429093" x="249.765331"/>
   <rect id="svg_34" fill="url(#83d2a205-1aab-4c1f-9a0d-e371e1497593)" ry="0.8" rx="0.8" height="2.96" width="159.16" y="261.269093" x="249.765331"/>
   <rect id="svg_35" fill="url(#eaa6c3f5-6275-43ae-b3c2-02cbd6aead80)" ry="0.8" rx="0.8" height="2.96" width="91.79" y="270.149093" x="249.765331"/>
   <rect id="svg_36" fill="url(#e1588a1d-b1ef-45da-83e8-d054f8a4e057)" ry="0.8" rx="0.8" height="2.96" width="159.16" y="281.969093" x="249.765331"/>
   <rect id="svg_37" fill="url(#34a60174-261b-4ce6-8479-6deff5e9df2e)" ry="0.8" rx="0.8" height="2.96" width="159.16" y="290.849093" x="249.765331"/>
   <rect id="svg_38" fill="url(#b1d4060a-bab6-41d9-9d3f-50faf13ce905)" ry="0.8" rx="0.8" height="2.96" width="159.16" y="302.699093" x="249.765331"/>
   <rect id="svg_39" fill="url(#001da48e-f69d-4ab6-b1e5-b6877c600ca3)" ry="0.8" rx="0.8" height="2.96" width="91.79" y="311.579093" x="249.765331"/>
   <g id="svg_40" opacity="0.5">
    <rect id="svg_41" fill="url(#a9c4be37-9b27-4af0-b082-7a197d7b08af)" height="182.96" width="155.72" y="192.939093" x="341.515331"/>
   </g>
   <rect id="svg_42" fill="url(#1be8f728-2df0-4ca7-b72e-42c383ba6409)" height="175.97" width="147.62" y="195.889093" x="346.305331"/>
   <g id="svg_43" opacity="0.5">
    <path id="svg_44" fill="url(#2c239d92-4298-42ac-b5f5-112261fb3719)" d="m428.155331,223.869093l0,-4.42l-16.05,0l0,4.42l-11.29,0l0,21.71l38.6,0l0,-21.71l-11.26,0zm-14.05,-2.83l12,0l0,2.81l-12,0l0,-2.81z"/>
   </g>
   <rect id="svg_45" fill="url(#b25a2850-8713-435e-a7f6-77c24068e559)" height="19.88" width="35.34" y="224.599093" x="402.445331"/>
   <polygon id="svg_46" fill="url(#098fbc02-4549-4943-b845-c35e13d002ec)" points="412.7553253173828,220.54910278320312 412.7553253173828,225.7091064453125 414.59532165527344,225.7091064453125 414.59532165527344,222.02908325195312 425.6353302001953,222.02908325195312 425.6353302001953,225.7091064453125 427.47532653808594,225.7091064453125 427.47532653808594,220.54910278320312 412.7553253173828,220.54910278320312 "/>
   <rect id="svg_47" fill="url(#42d5ad37-1f95-4efe-a9d6-9d5a7598317f)" height="4.42" width="103.81" y="273.089093" x="368.395331"/>
   <rect id="svg_48" fill="url(#60652df1-b02f-405a-bafe-63f1323ca3b9)" height="4.42" width="103.81" y="302.169093" x="368.395331"/>
   <rect id="svg_49" fill="url(#d60c104b-effa-4916-ba15-d56398cc91aa)" height="4.42" width="103.81" y="309.899093" x="368.395331"/>
   <rect id="svg_50" fill="url(#ba8a67f6-dfe8-450d-b63e-7f0d0a91ef94)" height="4.42" width="43.81" y="294.439093" x="368.395331"/>
   <g id="svg_51" opacity="0.6">
    <rect id="svg_52" fill="url(#78ba6fe6-ecca-4e26-a377-427f9aaa9d9c)" height="4.42" width="32.76" y="294.439093" x="439.445331"/>
   </g>
   <rect id="svg_53" fill="url(#1435728f-56d7-4408-a8a2-001738c99643)" height="4.42" width="32.76" y="327.939093" x="404.835331"/>
   <polygon id="svg_54" fill="url(#9b7fa617-5070-4448-ba88-12c8e3ef9a97)" points="147.33533477783203,244.22909545898438 147.33533477783203,580.1690673828125 389.47532653808594,642.2890625 389.47532653808594,308.88909912109375 147.33533477783203,244.22909545898438 "/>
   <polygon id="svg_55" fill="url(#070ec920-a668-4755-a0ad-3a8615a89315)" points="631.6053314208984,578.9091186523438 389.47532653808594,642.2890625 389.47532653808594,308.88909912109375 631.6053314208984,244.22909545898438 631.6053314208984,578.9091186523438 "/>
   <g id="svg_56" opacity="0.07">
    <polygon id="svg_57" fill="url(#070ec920-a668-4755-a0ad-3a8615a89315)" points="631.6053314208984,578.9091186523438 389.47532653808594,642.2890625 389.47532653808594,308.88909912109375 631.6053314208984,244.22909545898438 631.6053314208984,578.9091186523438 "/>
   </g>
   <g id="svg_58" opacity="0.07">
    <polygon id="svg_59" fill="url(#e36d19af-3b30-4690-9806-5999beea7781)" points="535.2553558349609,467.3490905761719 535.2553558349609,577.6390380859375 631.6053314208984,551.0191040039062 631.6053314208984,440.7290954589844 535.2553558349609,467.3490905761719 "/>
   </g>
   <rect id="svg_60" fill="url(#a6dd6711-50c1-4fdb-98f5-9ce3faa6868a)" height="68.61" width="71.41" y="216.209093" x="504.885331"/>
   <rect id="svg_61" fill="url(#c3285259-7532-4ca4-be71-649fbde17c17)" height="65.53" width="69.17" y="217.889093" x="506.005331"/>
   <g id="svg_62" opacity="0.5">
    <path id="svg_63" fill="url(#a29959c1-757f-4596-a472-135c84a27060)" d="m546.705331,229.379093l0,-3.34l-12.23,0l0,3.36l-8.57,0l0,16.52l29.37,0l0,-16.54l-8.57,0zm-10.7,-2.14l9.18,0l0,2.14l-9.18,0l0,-2.14z"/>
   </g>
   <g id="svg_64" opacity="0.6">
    <rect id="svg_65" fill="url(#d4e4a16f-6e37-4db9-afc4-c764cb698323)" height="15.12" width="26.88" y="229.939093" x="527.145331"/>
   </g>
   <g id="svg_66" opacity="0.6">
    <polygon id="svg_67" fill="url(#cff56feb-0464-47d9-bfaf-95cdd3d9140f)" points="534.9853363037109,226.84909057617188 534.9853363037109,230.77908325195312 536.3953094482422,230.77908325195312 536.3953094482422,227.97909545898438 544.7953338623047,227.97909545898438 544.7953338623047,230.77908325195312 546.1953582763672,230.77908325195312 546.1953582763672,226.84909057617188 534.9853363037109,226.84909057617188 "/>
   </g>
   <g id="svg_68" opacity="0.6">
    <rect id="svg_69" fill="url(#03628828-f4ed-4a34-b456-49742169550b)" height="3.36" width="24.92" y="256.819093" x="528.685331"/>
   </g>
   <rect id="svg_70" fill="url(#563972f9-7c15-4736-8e1d-5831e19f738d)" height="3.36" width="42.57" y="262.979093" x="519.305331"/>
   <g id="svg_71" opacity="0.5">
    <rect id="svg_72" fill="url(#ac84c3f4-4913-47be-bf79-f44b0f4db4c8)" height="76" width="92.52" y="6.479093" x="335.595331"/>
   </g>
   <rect id="svg_73" fill="url(#08e6e94c-7f78-4a4a-b5ca-eacc99124954)" height="73.3" width="90.19" y="7.919093" x="336.675331"/>
   <rect id="svg_74" fill="url(#5d8bf870-f7e1-4226-8bb2-e6c031939852)" height="16.35" width="90.19" y="7.919093" x="336.675331"/>
   <g id="svg_75" opacity="0.1">
    <rect id="svg_76" fill="url(#5d8bf870-f7e1-4226-8bb2-e6c031939852)" height="16.35" width="90.19" y="7.919093" x="336.675331"/>
   </g>
   <rect id="svg_77" fill="url(#ca57a38f-5e0b-4f9a-ad35-d20a6a3fb589)" height="9.52" width="75.82" y="30.199093" x="343.865331"/>
   <rect id="svg_78" fill="url(#1fd9aa29-bfa0-42ec-baa0-a47f4919731f)" height="3.23" width="55.34" y="46.909093" x="343.865331"/>
   <rect id="svg_79" fill="url(#2b0d4ee5-bed4-41f8-93bf-55bbaa1359c2)" height="3.23" width="35.93" y="52.479093" x="343.865331"/>
   <rect id="svg_80" fill="url(#ffea16a4-8b84-4b92-9000-f48bb1ea4454)" height="3.23" width="47.43" y="58.049093" x="343.865331"/>
   <rect id="svg_81" fill="url(#bd2a8e8b-f3e8-4ae2-849a-acfa94ff2f68)" height="3.23" width="55.34" y="63.609093" x="343.865331"/>
   <rect id="svg_82" fill="url(#f06efa35-a8e5-4b8b-afbe-7609fb33c535)" height="3.23" width="18.5" y="69.179093" x="343.865331"/>
   <g id="svg_83" opacity="0.5">
    <rect id="svg_84" fill="url(#b384c48b-fa09-4d02-bdd3-cc00491ed01d)" height="94.19" width="114.68" y="63.549093" x="471.625331"/>
   </g>
   <rect id="svg_85" fill="url(#5e00f217-30a6-42ff-b3ae-1a90f6b4187c)" height="90.85" width="111.79" y="65.329093" x="472.965331"/>
   <rect id="svg_86" fill="url(#dc2aebd1-2b83-4119-bcc5-a741f826754f)" height="20.26" width="111.79" y="65.329093" x="472.965331"/>
   <rect id="svg_87" fill="url(#93231171-c5fd-4b16-9e58-5bf8089a9216)" height="11.8" width="93.97" y="92.939093" x="481.865331"/>
   <rect id="svg_88" fill="url(#50b8a9d8-eeba-4f66-80ff-241f1361769d)" height="4.01" width="68.59" y="113.649093" x="481.865331"/>
   <rect id="svg_89" fill="url(#1c46a2fd-722a-4782-991f-2753aa584a85)" height="4.01" width="44.54" y="120.549093" x="481.865331"/>
   <rect id="svg_90" fill="url(#20746c70-8f38-4111-a8e7-6be16dcdc432)" height="4.01" width="58.79" y="127.459093" x="481.865331"/>
   <rect id="svg_91" fill="url(#ff2c3201-2e6a-4c49-9262-7d1610fa9938)" height="4.01" width="68.59" y="134.359093" x="481.865331"/>
   <rect id="svg_92" fill="url(#f77a8c52-f808-4319-bd14-9cea9a000094)" height="4.01" width="22.94" y="141.259093" x="481.865331"/>
   <rect id="svg_93" fill="url(#fc3b52e5-7958-4225-afa3-e6f186f3a800)" height="3.56" width="26.72" y="96.949093" x="486.765331"/>
   <g id="svg_94" opacity="0.1">
    <polygon id="svg_95" fill="url(#2b5a7ca0-2cf9-4df0-8cdd-e53d9708a5ec)" points="144.17533111572266,418.5390930175781 279.81532287597656,452.7690734863281 388.83534240722656,364.0290832519531 388.83534240722656,309.51910400390625 146.70532989501953,248.66909790039062 144.17533111572266,418.5390930175781 "/>
   </g>
   <g id="svg_96" opacity="0.1">
    <polygon id="svg_97" fill="url(#90935925-bac4-44a4-bec6-4c83fa48424d)" points="633.5053558349609,418.5390930175781 497.85533142089844,452.7690734863281 388.83534240722656,364.0290832519531 388.83534240722656,309.51910400390625 630.9653167724609,248.66909790039062 633.5053558349609,418.5390930175781 "/>
   </g>
   <polygon id="svg_98" fill="url(#f90ef38d-8fba-46a7-8e54-2d901dfd8f20)" points="147.33533477783203,244.22909545898438 23.105331420898438,346.9190979003906 265.23533630371094,407.7690734863281 389.47532653808594,308.88909912109375 147.33533477783203,244.22909545898438 "/>
   <polygon id="svg_99" fill="url(#7f322de3-7e3f-4ca5-a3a0-2f913675712e)" points="631.6053314208984,244.22909545898438 757.1053314208984,346.9190979003906 516.2453460693359,407.7690734863281 389.47532653808594,308.88909912109375 631.6053314208984,244.22909545898438 "/>
   <g id="svg_100" opacity="0.07">
    <polygon id="svg_101" fill="url(#7f322de3-7e3f-4ca5-a3a0-2f913675712e)" points="631.6053314208984,244.22909545898438 757.1053314208984,346.9190979003906 516.2453460693359,407.7690734863281 389.47532653808594,308.88909912109375 631.6053314208984,244.22909545898438 "/>
   </g>
  </g>
  <polygon id="svg_102" fill="#3d7bd9" points="632.0453338623047,241.14907836914062 391.98533630371094,183.3291015625 391.98533630371094,635.799072265625 632.0453338623047,572.9591064453125 632.0453338623047,241.14907836914062 "/>
  <polygon id="svg_103" opacity="0.1" points="632.0453338623047,241.14907836914062 391.98533630371094,183.3291015625 391.98533630371094,635.799072265625 632.0453338623047,572.9591064453125 632.0453338623047,241.14907836914062 "/>
  <polygon id="svg_104" fill="#3d7bd9" points="151.93533325195312,241.14907836914062 391.98533630371094,183.3291015625 391.98533630371094,635.799072265625 151.93533325195312,574.2091064453125 151.93533325195312,241.14907836914062 "/>
  <polygon id="svg_105" opacity="0.17" points="151.93533325195312,239.14907836914062 391.98533630371094,181.3291015625 391.98533630371094,635.799072265625 151.93533325195312,574.2091064453125 151.93533325195312,239.14907836914062 "/>
  <polygon id="svg_106" fill="#3d7bd9" points="389.98533630371094,185.3291015625 516.4153289794922,80.26908874511719 756.4753265380859,141.85910034179688 630.0453338623047,243.14907836914062 389.98533630371094,185.3291015625 "/>
  <polygon id="svg_107" fill="#3d7bd9" points="30.765331268310547,145.10910034179688 153.93533325195312,243.14907836914062 393.98533630371094,185.3291015625 272.07533264160156,82.26908874511719 30.765331268310547,145.10910034179688 "/>
  <polygon id="svg_108" opacity="0.05" points="27.965312480926514,143.10910034179688 154.13531494140625,243.14907836914062 394.18531799316406,185.3291015625 269.2753143310547,80.26908874511719 27.965312480926514,143.10910034179688 "/>
  <g id="svg_109" opacity="0.5">
   <rect id="svg_110" fill="url(#7e9b6443-5111-46ce-82ab-312f92c279a9)" ry="4.5" rx="4.5" height="164.4" width="178.18" y="131.029093" x="213.935331"/>
  </g>
  <rect id="svg_111" fill="#f5f5f5" ry="4.5" rx="4.5" height="160.41" width="174.07" y="132.309093" x="216.115331"/>
  <rect id="svg_113" fill="#1b6626" ry="0.8" rx="0.8" height="2.94" width="116.7" y="158.729093" x="267.695331"/>
  <rect id="svg_114" fill="#1b6626" ry="0.8" rx="0.8" height="2.94" width="116.7" y="167.529093" x="267.695331"/>
  <rect id="svg_115" fill="#1b6626" ry="0.8" rx="0.8" height="2.94" width="157.8" y="199.499093" x="226.595331"/>
  <rect id="svg_116" fill="#1b6626" ry="0.8" rx="0.8" height="2.94" width="157.8" y="208.309093" x="226.595331"/>
  <rect id="svg_117" fill="#1b6626" ry="0.8" rx="0.8" height="2.94" width="157.8" y="220.049093" x="226.595331"/>
  <rect id="svg_118" fill="#1b6626" ry="0.8" rx="0.8" height="2.94" width="91.01" y="228.859093" x="226.595331"/>
  <rect id="svg_119" fill="#1b6626" ry="0.8" rx="0.8" height="2.94" width="157.8" y="240.569093" x="226.595331"/>
  <rect id="svg_120" fill="#1b6626" ry="0.8" rx="0.8" height="2.94" width="157.8" y="249.379093" x="226.595331"/>
  <rect id="svg_121" fill="#1b6626" ry="0.8" rx="0.8" height="2.94" width="157.8" y="261.119093" x="226.595331"/>
  <rect id="svg_122" fill="#1b6626" ry="0.8" rx="0.8" height="2.94" width="91.01" y="269.929093" x="226.595331"/>
  <g id="svg_123" opacity="0.5">
   <rect id="svg_124" fill="url(#0bd401ed-ef45-4e9e-bf5f-b77781a1e2b2)" ry="4.5" rx="4.5" height="164.4" width="178.18" y="169.019093" x="240.825331"/>
  </g>
  <rect id="svg_125" fill="#fff" ry="4.5" rx="4.5" height="160.41" width="174.07" y="170.299093" x="243.005331"/>
  <rect id="svg_127" fill="#1b6626" ry="0.8" rx="0.8" height="2.94" width="116.7" y="196.719093" x="294.585331"/>
  <rect id="svg_128" fill="#1b6626" ry="0.8" rx="0.8" height="2.94" width="116.7" y="205.519093" x="294.585331"/>
  <rect id="svg_129" fill="#1b6626" ry="0.8" rx="0.8" height="2.94" width="157.8" y="237.489093" x="253.485331"/>
  <rect id="svg_130" fill="#1b6626" ry="0.8" rx="0.8" height="2.94" width="157.8" y="246.299093" x="253.485331"/>
  <rect id="svg_131" fill="#1b6626" ry="0.8" rx="0.8" height="2.94" width="157.8" y="258.039093" x="253.485331"/>
  <rect id="svg_132" fill="#1b6626" ry="0.8" rx="0.8" height="2.94" width="91.01" y="266.849093" x="253.485331"/>
  <rect id="svg_133" fill="#1b6626" ry="0.8" rx="0.8" height="2.94" width="157.8" y="278.559093" x="253.485331"/>
  <rect id="svg_134" fill="#1b6626" ry="0.8" rx="0.8" height="2.94" width="157.8" y="287.369093" x="253.485331"/>
  <rect id="svg_135" fill="#1b6626" ry="0.8" rx="0.8" height="2.94" width="157.8" y="299.109093" x="253.485331"/>
  <rect id="svg_136" fill="#1b6626" ry="0.8" rx="0.8" height="2.94" width="91.01" y="307.919093" x="253.485331"/>
  <g id="svg_137" opacity="0.5">
   <rect id="svg_138" fill="url(#8c2d82fb-4f28-4e85-a5ca-7392731b2ba5)" height="181.39" width="154.39" y="190.299093" x="344.445331"/>
  </g>
  <rect id="svg_139" fill="#fff" height="174.46" width="146.36" y="193.219093" x="349.195331"/>
  <rect id="svg_144" fill="#1b6626" height="4.38" width="102.92" y="269.759093" x="371.095331"/>
  <rect id="svg_145" fill="#1b6626" height="4.38" width="102.92" y="298.589093" x="371.095331"/>
  <rect id="svg_146" fill="#1b6626" height="4.38" width="102.92" y="306.259093" x="371.095331"/>
  <rect id="svg_147" fill="#1b6626" height="4.38" width="43.43" y="290.929093" x="371.095331"/>
  <rect id="svg_148" opacity="0.6" fill="#3ad29f" height="4.38" width="32.48" y="290.929093" x="441.535331"/>
  <rect id="svg_149" fill="#1b6626" height="4.38" width="32.48" y="324.139093" x="407.225331"/>
  <polygon id="svg_150" fill="#3d7bd9" points="151.93533325195312,241.14907836914062 151.93533325195312,574.2091064453125 391.98533630371094,635.799072265625 395.22532653808594,305.24908447265625 151.93533325195312,241.14907836914062 "/>
  <polygon id="svg_151" fill="#3d7bd9" points="632.0453338623047,572.9591064453125 391.98533630371094,635.799072265625 391.98533630371094,305.24908447265625 632.0453338623047,241.14907836914062 632.0453338623047,572.9591064453125 "/>
  <polygon id="svg_152" opacity="0.07" points="632.0453338623047,572.9591064453125 391.98533630371094,635.799072265625 391.98533630371094,305.24908447265625 632.0453338623047,241.14907836914062 632.0453338623047,572.9591064453125 "/>
  <polygon id="svg_153" opacity="0.07" points="536.5253143310547,462.3591003417969 536.5253143310547,571.6990966796875 632.0453338623047,545.30908203125 632.0453338623047,435.9590759277344 536.5253143310547,462.3591003417969 "/>
  <rect id="svg_154" fill="url(#e62c516b-7ef4-49fd-a0a5-f3f48af03dcb)" height="68.02" width="70.8" y="213.369093" x="506.415331"/>
  <rect id="svg_155" fill="#f5f5f5" height="64.97" width="68.58" y="215.029093" x="507.525331"/>
  <g id="svg_160" opacity="0.6">
   <rect id="svg_161" fill="#1b6626" height="3.33" width="24.71" y="253.629093" x="530.015331"/>
  </g>
  <rect id="svg_162" fill="#bdbdbd" height="3.33" width="42.2" y="259.739093" x="520.715331"/>
  <g id="svg_172" opacity="0.5">
   <rect id="svg_173" fill="url(#ced5db71-211d-4559-8944-028d2e60ece5)" height="75.35" width="91.73" y="5.429093" x="338.575331"/>
  </g>
  <rect id="svg_174" fill="#f2f2f2" height="72.67" width="89.42" y="6.859093" x="339.645331"/>
  <rect id="svg_177" fill="#1b6626" height="9.44" width="75.17" y="28.949093" x="346.775331"/>
  <rect id="svg_178" fill="#1b6626" height="3.21" width="54.86" y="45.509093" x="346.775331"/>
  <rect id="svg_179" fill="#1b6626" height="3.21" width="35.62" y="51.029093" x="346.775331"/>
  <rect id="svg_180" fill="#1b6626" height="3.21" width="47.02" y="56.549093" x="346.775331"/>
  <rect id="svg_181" fill="#1b6626" height="3.21" width="54.86" y="62.079093" x="346.775331"/>
  <rect id="svg_182" fill="#1b6626" height="3.21" width="18.35" y="67.599093" x="346.775331"/>
  <g id="svg_183" opacity="0.5">
   <rect id="svg_184" fill="url(#4adf524d-df88-48e8-970a-1ad7028c73c0)" height="93.39" width="113.7" y="62.009093" x="473.435331"/>
  </g>
  <rect id="svg_185" fill="#fff" height="90.08" width="110.83" y="63.769093" x="474.765331"/>
  <rect id="svg_187" fill="#f5f5f5" height="11.7" width="93.17" y="91.149093" x="483.595331"/>
  <rect id="svg_188" fill="#1b6626" height="3.97" width="68" y="111.679093" x="483.595331"/>
  <rect id="svg_189" fill="#1b6626" height="3.97" width="44.16" y="118.529093" x="483.595331"/>
  <rect id="svg_190" fill="#1b6626" height="3.97" width="58.28" y="125.369093" x="483.595331"/>
  <rect id="svg_191" fill="#1b6626" height="3.97" width="68" y="132.219093" x="483.595331"/>
  <rect id="svg_192" fill="#1b6626" height="3.97" width="22.74" y="139.059093" x="483.595331"/>
  <polygon id="svg_194" opacity="0.1" points="148.7953338623047,413.9690856933594 283.2753448486328,447.8990783691406 391.36534118652344,359.9190979003906 391.36534118652344,305.87908935546875 151.30532836914062,245.54910278320312 148.7953338623047,413.9690856933594 "/>
  <polygon id="svg_195" opacity="0.1" points="633.9353485107422,413.9690856933594 499.45533752441406,447.8990783691406 391.36534118652344,359.9190979003906 391.36534118652344,305.87908935546875 631.4253387451172,245.54910278320312 633.9353485107422,413.9690856933594 "/>
  <polygon id="svg_196" fill="#3d7bd9" points="151.3470916748047,241.14907836914062 28.177095890045166,342.9490966796875 268.2270965576172,403.2790832519531 391.39710998535156,305.24908447265625 151.3470916748047,241.14907836914062 "/>
  <polygon id="svg_197" fill="#3d7bd9" points="632.0453338623047,241.14907836914062 756.4753265380859,342.9490966796875 517.6753387451172,403.2790832519531 391.98533630371094,305.24908447265625 632.0453338623047,241.14907836914062 "/>
  <polygon id="svg_198" opacity="0.07" points="632.0453338623047,241.14907836914062 756.4753265380859,342.9490966796875 517.6753387451172,403.2790832519531 391.98533630371094,305.24908447265625 632.0453338623047,241.14907836914062 "/>
 </g>
</svg>