<svg width="802" height="602" xmlns="http://www.w3.org/2000/svg">
 <title>financial data</title>

 <g>
  <title>background</title>
  <rect fill="none" id="canvas_background" height="604" width="804" y="-1" x="-1"/>
 </g>
 <g>
  <title>Layer 1</title>
  <polygon id="svg_4" fill="#2f2e41" points="501.3800048828125,575.1599731445312 323.19000244140625,572.8800048828125 323.7099914550781,568.3099975585938 332.3299865722656,492.91998291015625 488.82000732421875,492.91998291015625 500.33001708984375,568.3099975585938 501.21002197265625,574.02001953125 501.3800048828125,575.1599731445312 "/>
  <polygon id="svg_5" opacity="0.1" points="501.21002197265625,574.02001953125 412.280029296875,574.02001953125 323.19000244140625,572.8800048828125 323.7099914550781,568.3099975585938 500.33001708984375,568.3099975585938 501.21002197265625,574.02001953125 "/>
  <rect id="svg_6" fill="#3f3d56" height="5.71" width="236.45" y="569.45" x="293.49"/>
  <path id="svg_7" fill="#3f3d56" d="m755.539999,40.110002a14.87,14.87 0 0 0 -14.8,-14.94l-660.32,0a14.87,14.87 0 0 0 -14.8,14.94l0,400.26l689.92,0l0,-400.26z"/>
  <path id="svg_8" fill="#3f3d56" d="m65.619999,436.380002l0,46.88a14.8,14.8 0 0 0 14.8,14.8l660.32,0a14.8,14.8 0 0 0 14.8,-14.8l0,-46.88l-689.92,0z"/>
  <rect id="svg_9" fill="#2f2e41" height="359.81" width="636.23" y="50.3" x="94.17"/>
  <path id="svg_10" fill="#3d7bd9" d="m413.969999,480.270002a15.4,15.4 0 0 0 12.13,-5.89l0,0a15.28,15.28 0 0 0 1.2,-1.77l-8.46,-1.39l9.15,0.07a15.5,15.5 0 0 0 0.3,-12.22l-12.28,6.37l11.32,-8.32a15.42,15.42 0 1 0 -25.47,17.26l0,0a15.4,15.4 0 0 0 12.11,5.89z"/>
  <polygon id="svg_11" opacity="0.1" points="429.41998291015625,498.05999755859375 500.510009765625,569.4500122070312 489.5999755859375,498.05999755859375 429.41998291015625,498.05999755859375 "/>
  <rect id="svg_14" opacity="0.3" fill="#3d7bd9" height="6.42" width="21.15" y="189.11" x="122.43"/>
  <rect id="svg_15" opacity="0.3" fill="#3d7bd9" height="6.42" width="21.15" y="189.3" x="686.78"/>
  <rect id="svg_16" opacity="0.3" fill="#3d7bd9" height="6.42" width="21.15" y="234.24" x="122.62"/>
  <rect id="svg_17" opacity="0.3" fill="#3d7bd9" height="6.42" width="21.15" y="279.37" x="122.81"/>
  <rect id="svg_18" opacity="0.3" fill="#3d7bd9" height="6.42" width="21.15" y="324.49" x="123"/>
  <g id="svg_19" opacity="0.2">
   <rect id="svg_20" fill="#f2f2f2" height="0.25" width="6" y="192.2" x="143.58"/>
   <path id="svg_21" fill="#f2f2f2" d="m668.609999,192.450002l-11.79,0l0,-0.25l11.79,0l0,0.25zm-23.59,-0.25l-11.79,0l0,-0.25l11.79,0l0,0.25zm-23.59,0l-11.8,0l0,-0.25l11.8,0l0,0.25zm-23.59,0l-11.8,0l0,-0.25l11.8,0l0,0.25zm-23.59,0l-11.8,0l0,-0.25l11.8,0l0,0.25zm-23.6,0l-11.79,0l0,-0.25l11.79,0l0,0.25zm-23.59,0l-11.8,0l0,-0.25l11.8,0l0,0.25zm-23.59,0l-11.8,0l0,-0.25l11.8,0l0,0.25zm-23.59,0l-11.8,0l0,-0.25l11.8,0l0,0.25zm-23.6,0l-11.79,0l0,-0.25l11.79,0l0,0.25zm-23.59,0l-11.8,0l0,-0.25l11.8,0l0,0.25zm-23.59,0l-11.8,0l0,-0.25l11.8,0l0,0.25zm-23.59,0l-11.8,0l0,-0.25l11.8,0l0,0.25zm-23.6,0l-11.79,0l0,-0.25l11.79,0l0,0.25zm-23.59,0l-11.79,0l0,-0.25l11.79,0l0,0.25zm-23.59,0l-11.76,0l0,-0.25l11.8,0l-0.04,0.25zm-23.59,0l-11.8,0l0,-0.25l11.8,0l0,0.25zm-23.6,0l-11.79,0l0,-0.25l11.79,0l0,0.25zm-23.59,0l-11.79,0l0,-0.25l11.81,0l-0.02,0.25zm-23.59,0l-11.8,0l0,-0.25l11.8,0l0,0.25zm-23.59,0l-11.8,0l0,-0.25l11.8,0l0,0.25zm-23.6,0l-11.79,0l0,-0.25l11.79,0l0,0.25z"/>
   <rect id="svg_22" fill="#f2f2f2" height="0.25" width="6" y="192.2" x="680.41"/>
   <rect id="svg_23" fill="#f2f2f2" height="0.25" width="6" y="192.2" x="143.58"/>
   <path id="svg_24" fill="#f2f2f2" d="m668.609999,192.450002l-11.79,0l0,-0.25l11.79,0l0,0.25zm-23.59,-0.25l-11.79,0l0,-0.25l11.79,0l0,0.25zm-23.59,0l-11.8,0l0,-0.25l11.8,0l0,0.25zm-23.59,0l-11.8,0l0,-0.25l11.8,0l0,0.25zm-23.59,0l-11.8,0l0,-0.25l11.8,0l0,0.25zm-23.6,0l-11.79,0l0,-0.25l11.79,0l0,0.25zm-23.59,0l-11.8,0l0,-0.25l11.8,0l0,0.25zm-23.59,0l-11.8,0l0,-0.25l11.8,0l0,0.25zm-23.59,0l-11.8,0l0,-0.25l11.8,0l0,0.25zm-23.6,0l-11.79,0l0,-0.25l11.79,0l0,0.25zm-23.59,0l-11.8,0l0,-0.25l11.8,0l0,0.25zm-23.59,0l-11.8,0l0,-0.25l11.8,0l0,0.25zm-23.59,0l-11.8,0l0,-0.25l11.8,0l0,0.25zm-23.6,0l-11.79,0l0,-0.25l11.79,0l0,0.25zm-23.59,0l-11.79,0l0,-0.25l11.79,0l0,0.25zm-23.59,0l-11.76,0l0,-0.25l11.8,0l-0.04,0.25zm-23.59,0l-11.8,0l0,-0.25l11.8,0l0,0.25zm-23.6,0l-11.79,0l0,-0.25l11.79,0l0,0.25zm-23.59,0l-11.79,0l0,-0.25l11.81,0l-0.02,0.25zm-23.59,0l-11.8,0l0,-0.25l11.8,0l0,0.25zm-23.59,0l-11.8,0l0,-0.25l11.8,0l0,0.25zm-23.6,0l-11.79,0l0,-0.25l11.79,0l0,0.25z"/>
   <rect id="svg_25" fill="#f2f2f2" height="0.25" width="6" y="192.2" x="680.41"/>
  </g>
  <rect id="svg_26" opacity="0.3" fill="#3d7bd9" height="6.42" width="21.15" y="144.11" x="122.43"/>
  <rect id="svg_27" opacity="0.3" fill="#3d7bd9" height="6.42" width="21.15" y="144.3" x="686.78"/>
  <g id="svg_28" opacity="0.2">
   <rect id="svg_29" fill="#f2f2f2" height="0.25" width="6" y="147.2" x="143.58"/>
   <path id="svg_30" fill="#f2f2f2" d="m668.609999,147.450002l-11.79,0l0,-0.25l11.79,0l0,0.25zm-23.59,-0.25l-11.79,0l0,-0.25l11.79,0l0,0.25zm-23.59,0l-11.8,0l0,-0.25l11.8,0l0,0.25zm-23.59,0l-11.8,0l0,-0.25l11.8,0l0,0.25zm-23.59,0l-11.8,0l0,-0.25l11.8,0l0,0.25zm-23.6,0l-11.79,0l0,-0.25l11.79,0l0,0.25zm-23.59,0l-11.8,0l0,-0.25l11.8,0l0,0.25zm-23.59,0l-11.8,0l0,-0.25l11.8,0l0,0.25zm-23.59,0l-11.8,0l0,-0.25l11.8,0l0,0.25zm-23.6,0l-11.79,0l0,-0.25l11.79,0l0,0.25zm-23.59,0l-11.8,0l0,-0.25l11.8,0l0,0.25zm-23.59,0l-11.8,0l0,-0.25l11.8,0l0,0.25zm-23.59,0l-11.8,0l0,-0.25l11.8,0l0,0.25zm-23.6,0l-11.79,0l0,-0.25l11.79,0l0,0.25zm-23.59,0l-11.79,0l0,-0.25l11.79,0l0,0.25zm-23.59,0l-11.76,0l0,-0.25l11.8,0l-0.04,0.25zm-23.59,0l-11.8,0l0,-0.25l11.8,0l0,0.25zm-23.6,0l-11.79,0l0,-0.25l11.79,0l0,0.25zm-23.59,0l-11.79,0l0,-0.25l11.81,0l-0.02,0.25zm-23.59,0l-11.8,0l0,-0.25l11.8,0l0,0.25zm-23.59,0l-11.8,0l0,-0.25l11.8,0l0,0.25zm-23.6,0l-11.79,0l0,-0.25l11.79,0l0,0.25z"/>
   <rect id="svg_31" fill="#f2f2f2" height="0.25" width="6" y="147.2" x="680.41"/>
  </g>
  <rect id="svg_32" opacity="0.3" fill="#3d7bd9" height="6.42" width="21.15" y="234.24" x="686.78"/>
  <g id="svg_33" opacity="0.2">
   <rect id="svg_34" fill="#f2f2f2" height="0.25" width="6" y="237.14" x="143.58"/>
   <path id="svg_35" fill="#f2f2f2" d="m668.609999,237.380002l-11.79,0l0,-0.25l11.79,0l0,0.25zm-23.59,-0.25l-11.79,0l0,-0.25l11.79,0l0,0.25zm-23.59,0l-11.8,0l0,-0.25l11.8,0l0,0.25zm-23.59,0l-11.8,0l0,-0.25l11.8,0l0,0.25zm-23.59,0l-11.8,0l0,-0.25l11.8,0l0,0.25zm-23.6,0l-11.79,0l0,-0.25l11.79,0l0,0.25zm-23.59,0l-11.8,0l0,-0.25l11.8,0l0,0.25zm-23.59,0l-11.8,0l0,-0.25l11.8,0l0,0.25zm-23.59,0l-11.8,0l0,-0.25l11.8,0l0,0.25zm-23.6,0l-11.79,0l0,-0.25l11.79,0l0,0.25zm-23.59,0l-11.8,0l0,-0.25l11.8,0l0,0.25zm-23.59,0l-11.8,0l0,-0.25l11.8,0l0,0.25zm-23.59,0l-11.8,0l0,-0.25l11.8,0l0,0.25zm-23.6,0l-11.79,0l0,-0.25l11.79,0l0,0.25zm-23.59,0l-11.79,0l0,-0.25l11.79,0l0,0.25zm-23.59,0l-11.76,0l0,-0.25l11.8,0l-0.04,0.25zm-23.59,0l-11.8,0l0,-0.25l11.8,0l0,0.25zm-23.6,0l-11.79,0l0,-0.25l11.79,0l0,0.25zm-23.59,0l-11.79,0l0,-0.25l11.81,0l-0.02,0.25zm-23.59,0l-11.8,0l0,-0.25l11.8,0l0,0.25zm-23.59,0l-11.8,0l0,-0.25l11.8,0l0,0.25zm-23.6,0l-11.79,0l0,-0.25l11.79,0l0,0.25z"/>
   <rect id="svg_36" fill="#f2f2f2" height="0.25" width="6" y="237.14" x="680.41"/>
   <rect id="svg_37" fill="#f2f2f2" height="0.25" width="6" y="237.14" x="143.58"/>
   <path id="svg_38" fill="#f2f2f2" d="m668.609999,237.380002l-11.79,0l0,-0.25l11.79,0l0,0.25zm-23.59,-0.25l-11.79,0l0,-0.25l11.79,0l0,0.25zm-23.59,0l-11.8,0l0,-0.25l11.8,0l0,0.25zm-23.59,0l-11.8,0l0,-0.25l11.8,0l0,0.25zm-23.59,0l-11.8,0l0,-0.25l11.8,0l0,0.25zm-23.6,0l-11.79,0l0,-0.25l11.79,0l0,0.25zm-23.59,0l-11.8,0l0,-0.25l11.8,0l0,0.25zm-23.59,0l-11.8,0l0,-0.25l11.8,0l0,0.25zm-23.59,0l-11.8,0l0,-0.25l11.8,0l0,0.25zm-23.6,0l-11.79,0l0,-0.25l11.79,0l0,0.25zm-23.59,0l-11.8,0l0,-0.25l11.8,0l0,0.25zm-23.59,0l-11.8,0l0,-0.25l11.8,0l0,0.25zm-23.59,0l-11.8,0l0,-0.25l11.8,0l0,0.25zm-23.6,0l-11.79,0l0,-0.25l11.79,0l0,0.25zm-23.59,0l-11.79,0l0,-0.25l11.79,0l0,0.25zm-23.59,0l-11.76,0l0,-0.25l11.8,0l-0.04,0.25zm-23.59,0l-11.8,0l0,-0.25l11.8,0l0,0.25zm-23.6,0l-11.79,0l0,-0.25l11.79,0l0,0.25zm-23.59,0l-11.79,0l0,-0.25l11.81,0l-0.02,0.25zm-23.59,0l-11.8,0l0,-0.25l11.8,0l0,0.25zm-23.59,0l-11.8,0l0,-0.25l11.8,0l0,0.25zm-23.6,0l-11.79,0l0,-0.25l11.79,0l0,0.25z"/>
   <rect id="svg_39" fill="#f2f2f2" height="0.25" width="6" y="237.14" x="680.41"/>
  </g>
  <rect id="svg_40" opacity="0.3" fill="#3d7bd9" height="6.42" width="21.15" y="279.18" x="686.78"/>
  <g id="svg_41" opacity="0.2">
   <rect id="svg_42" fill="#f2f2f2" height="0.25" width="6" y="282.07" x="143.58"/>
   <path id="svg_43" fill="#f2f2f2" d="m668.609999,282.320002l-11.79,0l0,-0.25l11.79,0l0,0.25zm-23.59,-0.25l-11.79,0l0,-0.25l11.79,0l0,0.25zm-23.59,0l-11.8,0l0,-0.25l11.8,0l0,0.25zm-23.59,0l-11.8,0l0,-0.25l11.8,0l0,0.25zm-23.59,0l-11.8,0l0,-0.25l11.8,0l0,0.25zm-23.6,0l-11.79,0l0,-0.25l11.79,0l0,0.25zm-23.59,0l-11.8,0l0,-0.25l11.8,0l0,0.25zm-23.59,0l-11.8,0l0,-0.25l11.8,0l0,0.25zm-23.59,0l-11.8,0l0,-0.25l11.8,0l0,0.25zm-23.6,0l-11.79,0l0,-0.25l11.79,0l0,0.25zm-23.59,0l-11.8,0l0,-0.25l11.8,0l0,0.25zm-23.59,0l-11.8,0l0,-0.25l11.8,0l0,0.25zm-23.59,0l-11.8,0l0,-0.25l11.8,0l0,0.25zm-23.6,0l-11.79,0l0,-0.25l11.79,0l0,0.25zm-23.59,0l-11.79,0l0,-0.25l11.79,0l0,0.25zm-23.59,0l-11.76,0l0,-0.25l11.8,0l-0.04,0.25zm-23.59,0l-11.8,0l0,-0.25l11.8,0l0,0.25zm-23.6,0l-11.79,0l0,-0.25l11.79,0l0,0.25zm-23.59,0l-11.79,0l0,-0.25l11.81,0l-0.02,0.25zm-23.59,0l-11.8,0l0,-0.25l11.8,0l0,0.25zm-23.59,0l-11.8,0l0,-0.25l11.8,0l0,0.25zm-23.6,0l-11.79,0l0,-0.25l11.79,0l0,0.25z"/>
   <rect id="svg_44" fill="#f2f2f2" height="0.25" width="6" y="282.07" x="680.41"/>
   <rect id="svg_45" fill="#f2f2f2" height="0.25" width="6" y="282.07" x="143.58"/>
   <path id="svg_46" fill="#f2f2f2" d="m668.609999,282.320002l-11.79,0l0,-0.25l11.79,0l0,0.25zm-23.59,-0.25l-11.79,0l0,-0.25l11.79,0l0,0.25zm-23.59,0l-11.8,0l0,-0.25l11.8,0l0,0.25zm-23.59,0l-11.8,0l0,-0.25l11.8,0l0,0.25zm-23.59,0l-11.8,0l0,-0.25l11.8,0l0,0.25zm-23.6,0l-11.79,0l0,-0.25l11.79,0l0,0.25zm-23.59,0l-11.8,0l0,-0.25l11.8,0l0,0.25zm-23.59,0l-11.8,0l0,-0.25l11.8,0l0,0.25zm-23.59,0l-11.8,0l0,-0.25l11.8,0l0,0.25zm-23.6,0l-11.79,0l0,-0.25l11.79,0l0,0.25zm-23.59,0l-11.8,0l0,-0.25l11.8,0l0,0.25zm-23.59,0l-11.8,0l0,-0.25l11.8,0l0,0.25zm-23.59,0l-11.8,0l0,-0.25l11.8,0l0,0.25zm-23.6,0l-11.79,0l0,-0.25l11.79,0l0,0.25zm-23.59,0l-11.79,0l0,-0.25l11.79,0l0,0.25zm-23.59,0l-11.76,0l0,-0.25l11.8,0l-0.04,0.25zm-23.59,0l-11.8,0l0,-0.25l11.8,0l0,0.25zm-23.6,0l-11.79,0l0,-0.25l11.79,0l0,0.25zm-23.59,0l-11.79,0l0,-0.25l11.81,0l-0.02,0.25zm-23.59,0l-11.8,0l0,-0.25l11.8,0l0,0.25zm-23.59,0l-11.8,0l0,-0.25l11.8,0l0,0.25zm-23.6,0l-11.79,0l0,-0.25l11.79,0l0,0.25z"/>
   <rect id="svg_47" fill="#f2f2f2" height="0.25" width="6" y="282.07" x="680.41"/>
  </g>
  <rect id="svg_48" opacity="0.3" fill="#3d7bd9" height="6.42" width="21.15" y="324.11" x="686.78"/>
  <g id="svg_49" opacity="0.2">
   <rect id="svg_50" fill="#f2f2f2" height="0.25" width="6" y="327.01" x="143.58"/>
   <path id="svg_51" fill="#f2f2f2" d="m668.609999,327.260002l-11.79,0l0,-0.25l11.79,0l0,0.25zm-23.59,-0.25l-11.79,0l0,-0.25l11.79,0l0,0.25zm-23.59,0l-11.8,0l0,-0.25l11.8,0l0,0.25zm-23.59,0l-11.8,0l0,-0.25l11.8,0l0,0.25zm-23.59,0l-11.8,0l0,-0.25l11.8,0l0,0.25zm-23.6,0l-11.79,0l0,-0.25l11.79,0l0,0.25zm-23.59,0l-11.8,0l0,-0.25l11.8,0l0,0.25zm-23.59,0l-11.8,0l0,-0.25l11.8,0l0,0.25zm-23.59,0l-11.8,0l0,-0.25l11.8,0l0,0.25zm-23.6,0l-11.79,0l0,-0.25l11.79,0l0,0.25zm-23.59,0l-11.8,0l0,-0.25l11.8,0l0,0.25zm-23.59,0l-11.8,0l0,-0.25l11.8,0l0,0.25zm-23.59,0l-11.8,0l0,-0.25l11.8,0l0,0.25zm-23.6,0l-11.79,0l0,-0.25l11.79,0l0,0.25zm-23.59,0l-11.79,0l0,-0.25l11.79,0l0,0.25zm-23.59,0l-11.76,0l0,-0.25l11.8,0l-0.04,0.25zm-23.59,0l-11.8,0l0,-0.25l11.8,0l0,0.25zm-23.6,0l-11.79,0l0,-0.25l11.79,0l0,0.25zm-23.59,0l-11.79,0l0,-0.25l11.81,0l-0.02,0.25zm-23.59,0l-11.8,0l0,-0.25l11.8,0l0,0.25zm-23.59,0l-11.8,0l0,-0.25l11.8,0l0,0.25zm-23.6,0l-11.79,0l0,-0.25l11.79,0l0,0.25z"/>
   <rect id="svg_52" fill="#f2f2f2" height="0.25" width="6" y="327.01" x="680.41"/>
   <rect id="svg_53" fill="#f2f2f2" height="0.25" width="6" y="327.01" x="143.58"/>
   <path id="svg_54" fill="#f2f2f2" d="m668.609999,327.260002l-11.79,0l0,-0.25l11.79,0l0,0.25zm-23.59,-0.25l-11.79,0l0,-0.25l11.79,0l0,0.25zm-23.59,0l-11.8,0l0,-0.25l11.8,0l0,0.25zm-23.59,0l-11.8,0l0,-0.25l11.8,0l0,0.25zm-23.59,0l-11.8,0l0,-0.25l11.8,0l0,0.25zm-23.6,0l-11.79,0l0,-0.25l11.79,0l0,0.25zm-23.59,0l-11.8,0l0,-0.25l11.8,0l0,0.25zm-23.59,0l-11.8,0l0,-0.25l11.8,0l0,0.25zm-23.59,0l-11.8,0l0,-0.25l11.8,0l0,0.25zm-23.6,0l-11.79,0l0,-0.25l11.79,0l0,0.25zm-23.59,0l-11.8,0l0,-0.25l11.8,0l0,0.25zm-23.59,0l-11.8,0l0,-0.25l11.8,0l0,0.25zm-23.59,0l-11.8,0l0,-0.25l11.8,0l0,0.25zm-23.6,0l-11.79,0l0,-0.25l11.79,0l0,0.25zm-23.59,0l-11.79,0l0,-0.25l11.79,0l0,0.25zm-23.59,0l-11.76,0l0,-0.25l11.8,0l-0.04,0.25zm-23.59,0l-11.8,0l0,-0.25l11.8,0l0,0.25zm-23.6,0l-11.79,0l0,-0.25l11.79,0l0,0.25zm-23.59,0l-11.79,0l0,-0.25l11.81,0l-0.02,0.25zm-23.59,0l-11.8,0l0,-0.25l11.8,0l0,0.25zm-23.59,0l-11.8,0l0,-0.25l11.8,0l0,0.25zm-23.6,0l-11.79,0l0,-0.25l11.79,0l0,0.25z"/>
   <rect id="svg_55" fill="#f2f2f2" height="0.25" width="6" y="327.01" x="680.41"/>
  </g>
  <line id="svg_56" stroke-width="0.1" stroke-miterlimit="10" stroke="#f2f2f2" fill="none" y2="327.7" x2="212.53" y1="147.51" x1="212.53"/>
  <line id="svg_57" stroke-width="0.1" stroke-miterlimit="10" stroke="#f2f2f2" fill="none" y2="327.7" x2="285.53" y1="147.51" x1="285.53"/>
  <line id="svg_58" stroke-width="0.1" stroke-miterlimit="10" stroke="#f2f2f2" fill="none" y2="327.7" x2="358.53" y1="147.51" x1="358.53"/>
  <line id="svg_59" stroke-width="0.1" stroke-miterlimit="10" stroke="#f2f2f2" fill="none" y2="327.7" x2="431.53" y1="147.51" x1="431.53"/>
  <line id="svg_60" stroke-width="0.1" stroke-miterlimit="10" stroke="#f2f2f2" fill="none" y2="327.7" x2="504.53" y1="147.51" x1="504.53"/>
  <line id="svg_61" stroke-width="0.1" stroke-miterlimit="10" stroke="#f2f2f2" fill="none" y2="327.7" x2="577.53" y1="147.51" x1="577.53"/>
  <line id="svg_62" stroke-width="0.1" stroke-miterlimit="10" stroke="#f2f2f2" fill="none" y2="327.7" x2="650.53" y1="147.51" x1="650.53"/>
  <path id="svg_63" opacity="0.3" fill="#3d7bd9" d="m666.319999,135.350002l-8.35,8.7a2.55,2.55 0 0 0 -0.42,0.61l-5.18,10.67a2.36,2.36 0 0 1 -2.31,1.33l-1.66,-0.13a2.36,2.36 0 0 1 -2.1,-1.7l-1.6,-5.54a2.37,2.37 0 0 0 -4.52,-0.11l-2.69,7.88a2.37,2.37 0 0 1 -2.25,1.61l-10.27,0a2.38,2.38 0 0 1 -2.34,-2l-2.9,-18.15a2.37,2.37 0 0 0 -4.46,-0.7l-14.87,29.35a2.37,2.37 0 0 1 -3.48,0.87l-8.84,-6.24a2.39,2.39 0 0 0 -3.17,0.38l-3.35,3.87a2.26,2.26 0 0 0 -0.26,0.37l-8.94,15.47a2.35,2.35 0 0 1 -2.29,1.17l-5.45,-0.54a2.39,2.39 0 0 0 -1.12,0.16l-4.88,1.95a2.37,2.37 0 0 1 -3,-1.25l-1.07,-2.45a2.38,2.38 0 0 0 -2.28,-1.42l-5.58,0.26a2.34,2.34 0 0 0 -1.77,0.93l-1.58,2.06a2.37,2.37 0 0 1 -4.12,-0.66l-2,-5.65a2.37,2.37 0 0 0 -3.66,-1.11l-9.5,7.12l-10.5,8.47a2.38,2.38 0 0 1 -2.58,0.26l-8.15,-4.23a2.39,2.39 0 0 0 -1.42,-0.24l-16.51,2.31a2.38,2.38 0 0 0 -2,1.82l-2.93,12.73a2.37,2.37 0 0 1 -3.85,1.27l0,0a2.38,2.38 0 0 0 -3.67,0.74l-2.25,4.51a2.4,2.4 0 0 1 -1.73,1.28l-5.11,0.85a2.38,2.38 0 0 0 -0.92,0.37l-8.05,5.36a2.35,2.35 0 0 1 -1.31,0.4l-3.77,0a2.37,2.37 0 0 1 -2.18,-1.43l-1,-2.39a2.37,2.37 0 0 0 -3.18,-1.19l-8.74,4.09a2.38,2.38 0 0 1 -2.23,-0.11l-4,-2.41a2.39,2.39 0 0 0 -1.22,-0.34l-8.83,0a2.37,2.37 0 0 0 -1.31,0.4l-8.81,5.85a2.37,2.37 0 0 1 -2.32,0.17l-4,-1.89a2.37,2.37 0 0 0 -2.79,0.59l-1.9,2.17a2.36,2.36 0 0 1 -3.85,-0.4l-0.57,-1a2.37,2.37 0 0 0 -3.28,-0.88l-6.93,4.11a2.37,2.37 0 0 1 -2.36,0l-2.86,-1.59a2.35,2.35 0 0 0 -2.13,-0.09l-2.72,1.24a2.39,2.39 0 0 1 -3.25,-1.44l-1.76,-5.24a2.35,2.35 0 0 0 -2.26,-1.65l-2.56,0a2.32,2.32 0 0 1 -1.15,-0.3l-9.83,-5.39a2.38,2.38 0 0 0 -2.56,0.19l-7.21,5.4a2.35,2.35 0 0 1 -1.42,0.47l-9.07,0a2.35,2.35 0 0 0 -1.31,0.4l-1.7,1.13a2.37,2.37 0 0 1 -3.44,-0.91l-0.41,-0.81a2.36,2.36 0 0 0 -2.12,-1.32l-4.55,0a2.37,2.37 0 0 0 -1.87,0.92l-2.82,3.61a2.37,2.37 0 0 1 -3.87,-0.19l-0.8,-1.25a2.36,2.36 0 0 0 -3.22,-0.76l-2.34,1.4a2.38,2.38 0 0 1 -2.61,-0.11l-9.43,-6.83a2.86,2.86 0 0 0 -0.54,-0.3l-7.37,-2.83a2.37,2.37 0 0 0 -3,1.32l-5.13,12.5a2.14,2.14 0 0 0 -0.15,0.55l-1.66,11.26a2.38,2.38 0 0 1 -0.62,1.27l-3.51,3.77a2.39,2.39 0 0 1 -2.89,0.45l-6.09,-3.38a2.37,2.37 0 0 0 -3.4,1.3l-3.86,11.29a2.27,2.27 0 0 0 -0.13,0.77l0,7.12a2.37,2.37 0 0 1 -1.43,2.17l-6.19,2.74a2.37,2.37 0 0 1 -2.15,-0.14l-4.66,-2.74a2.37,2.37 0 0 0 -1.54,-0.3l-8.17,1.17a2.36,2.36 0 0 1 -2.38,-1.16l-1.38,-2.36a2.35,2.35 0 0 0 -1.34,-1.06l-3.71,-1.16a2.36,2.36 0 0 0 -2.47,0.67l-5.15,5.72a2.4,2.4 0 0 1 -1.57,0.78l-7.6,0.64a2.24,2.24 0 0 0 -1,0.3l-13.25,7.62a2.38,2.38 0 0 1 -2.66,-0.21l-3.76,-3a2.4,2.4 0 0 0 -1.48,-0.52l-14.24,0a2.35,2.35 0 0 1 -1.85,-0.89l-3.59,-4.48a2.37,2.37 0 0 0 -3.61,-0.1l-4.32,4.8a2.37,2.37 0 0 0 -0.61,1.58l0,59.64a2.37,2.37 0 0 0 2.37,2.37l513.73,0a2.37,2.37 0 0 0 2.37,-2.38l-0.14,-188.33a2.38,2.38 0 0 0 -4.09,-1.69z"/>
  <path id="svg_64" opacity="0.3" fill="#3d7bd9" d="m665.859999,212.580002l-7.74,5.16a3,3 0 0 0 -0.71,0.67l-4.81,6.35a3,3 0 0 1 -2.48,1.16l-1.57,-0.08a2.94,2.94 0 0 1 -2.53,-1.72l-1,-2.13a2.92,2.92 0 0 0 -5.25,-0.17l-2,3.83a2.92,2.92 0 0 1 -2.59,1.55l-9.92,0a2.91,2.91 0 0 1 -2.84,-2.22l-2.38,-9.53a2.93,2.93 0 0 0 -5.14,-1.11l-14.3,18.08a2.91,2.91 0 0 1 -3.5,0.85l-9.19,-4.15a2.93,2.93 0 0 0 -3,0.31l-3.29,2.43a2.72,2.72 0 0 0 -0.43,0.4l-8.68,9.61a2.93,2.93 0 0 1 -2.36,1l-5.67,-0.36a3.16,3.16 0 0 0 -0.92,0.08l-5.11,1.31a2.92,2.92 0 0 1 -3.15,-1.18l-0.58,-0.86a2.93,2.93 0 0 0 -2.5,-1.27l-5.7,0.17a2.82,2.82 0 0 0 -1.79,0.68l-1.4,1.17a2.93,2.93 0 0 1 -4.45,-0.83l-1.48,-2.68a2.93,2.93 0 0 0 -3.83,-1.23l-9.59,4.61l-10.61,5.48a2.91,2.91 0 0 1 -2.26,0.17l-8.45,-2.8a3,3 0 0 0 -1.18,-0.14l-16.36,1.39a3,3 0 0 0 -2.5,1.93l-2.37,6.62a2.93,2.93 0 0 1 -4.16,1.58l-0.1,-0.05a2.91,2.91 0 0 0 -3.71,0.76l-1.86,2.38a3,3 0 0 1 -2,1.11l-5.12,0.55a3,3 0 0 0 -0.84,0.21l-8.11,3.47a3.06,3.06 0 0 1 -1.15,0.23l-3.9,0a2.93,2.93 0 0 1 -2.42,-1.28l-0.56,-0.82a2.93,2.93 0 0 0 -3.26,-1.15l-9.09,2.75a2.94,2.94 0 0 1 -1.9,-0.07l-4.22,-1.62a2.88,2.88 0 0 0 -1,-0.2l-9.06,0a2.81,2.81 0 0 0 -1.14,0.24l-9,3.82a2.9,2.9 0 0 1 -2,0.11l-4.45,-1.33a2.94,2.94 0 0 0 -2.57,0.44l-1.95,1.43a2.93,2.93 0 0 1 -3.93,-0.43l-0.29,-0.33a2.93,2.93 0 0 0 -3.24,-0.81l-7.25,2.77a2.92,2.92 0 0 1 -2,0l-3.18,-1.14a3,3 0 0 0 -1.8,-0.05l-3,0.87a2.93,2.93 0 0 1 -3.43,-1.5l-1.12,-2.25a2.94,2.94 0 0 0 -2.62,-1.62l-2.6,0a2.9,2.9 0 0 1 -1,-0.16l-10.09,-3.54a2.9,2.9 0 0 0 -2.24,0.12l-7.37,3.54a3,3 0 0 1 -1.27,0.29l-9.31,0a3.06,3.06 0 0 0 -1.15,0.23l-1.9,0.82a2.94,2.94 0 0 1 -3.46,-0.89l0,0a2.92,2.92 0 0 0 -2.31,-1.13l-4.7,0a2.94,2.94 0 0 0 -1.86,0.66l-2.73,2.24a2.91,2.91 0 0 1 -3.93,-0.2l-0.62,-0.62a2.93,2.93 0 0 0 -3.13,-0.67l-2.72,1.05a3,3 0 0 1 -2.29,-0.08l-9.57,-4.44a2.37,2.37 0 0 0 -0.53,-0.18l-7.51,-1.85a2.91,2.91 0 0 0 -3.16,1.26l-4.72,7.36a3,3 0 0 0 -0.39,0.92l-1.43,6.25a3,3 0 0 1 -1.2,1.76l-3.12,2.14a2.9,2.9 0 0 1 -2.63,0.34l-6.42,-2.28a2.93,2.93 0 0 0 -3.59,1.44l-3.38,6.32a3,3 0 0 0 -0.34,1.38l0,2.85a2.94,2.94 0 0 1 -2.15,2.82l-5.62,1.56a2.88,2.88 0 0 1 -1.81,-0.08l-4.9,-1.85a2.88,2.88 0 0 0 -1.3,-0.18l-8.45,0.77a2.9,2.9 0 0 1 -2.43,-0.94l-1,-1.11a2.84,2.84 0 0 0 -1.59,-0.9l-3.85,-0.78a3,3 0 0 0 -2.28,0.49l-5.07,3.61a3,3 0 0 1 -1.54,0.54l-7.77,0.41a3.06,3.06 0 0 0 -0.86,0.18l-13.49,5a2.86,2.86 0 0 1 -2.34,-0.14l-3.9,-2a2.93,2.93 0 0 0 -1.33,-0.32l-14.5,0a2.93,2.93 0 0 1 -1.84,-0.65l-3.51,-2.81a2.93,2.93 0 0 0 -3.53,-0.1l-3.76,2.68a2.94,2.94 0 0 0 -1.23,2.39l0,28.11a2.93,2.93 0 0 0 2.93,2.93l512.59,0a2.93,2.93 0 0 0 2.93,-2.93l-0.14,-109.77a2.93,2.93 0 0 0 -4.55,-2.48z"/>
  <circle id="svg_65" fill="#3d7bd9" r="7" cy="211.84" cx="667.93"/>
  <path id="svg_66" opacity="0.3" fill="#3d7bd9" d="m667.479999,281.090002l-9.51,3.17a2.49,2.49 0 0 0 -0.52,0.25l-5.22,3.45a2.22,2.22 0 0 1 -1.28,0.36l-3.25,-0.08a2.22,2.22 0 0 1 -1.6,-0.73l-2,-2.2a2.23,2.23 0 0 0 -3.18,-0.13l-3.37,3.16a2.2,2.2 0 0 1 -1.52,0.61l-11.68,0a2.21,2.21 0 0 1 -2,-1.24l-2.67,-5.33a2.23,2.23 0 0 0 -3.18,-0.89l-16.53,10.47a2.25,2.25 0 0 1 -1.68,0.29l-11.32,-2.55a2.17,2.17 0 0 0 -1.26,0.08l-4.13,1.53a1.41,1.41 0 0 0 -0.31,0.14l-9.13,5.06a2.3,2.3 0 0 1 -1.15,0.28l-6.76,-0.22a2,2 0 0 0 -0.35,0l-6.5,0.83a2.27,2.27 0 0 1 -1.6,-0.41l-1.32,-1a2.2,2.2 0 0 0 -1.35,-0.43l-7.13,0.1a2.12,2.12 0 0 0 -0.83,0.17l-3.2,1.35a2.24,2.24 0 0 1 -2.36,-0.41l-2.62,-2.32a2.22,2.22 0 0 0 -2,-0.51l-10.94,2.64l-11.25,2.91a2.19,2.19 0 0 1 -0.92,0l-9.5,-1.58a3.55,3.55 0 0 0 -0.46,0l-17.57,0.79a2.22,2.22 0 0 0 -1.71,0.93l-2.65,3.65a2.22,2.22 0 0 1 -2.4,0.85l-2.83,-0.78a2.26,2.26 0 0 0 -1.79,0.28l-2.83,1.81a2.29,2.29 0 0 1 -1.08,0.34l-6,0.33a2,2 0 0 0 -0.34,0l-8.66,1.85a2.5,2.5 0 0 1 -0.47,0.05l-5.08,0a2.21,2.21 0 0 1 -1.31,-0.43l-1.32,-1a2.19,2.19 0 0 0 -1.64,-0.41l-10.81,1.62a2.36,2.36 0 0 1 -0.75,0l-5.08,-1a2,2 0 0 0 -0.42,0l-9.75,0a2.4,2.4 0 0 0 -0.46,0l-9.89,2.1a2.15,2.15 0 0 1 -0.8,0l-5.89,-0.89a2.29,2.29 0 0 0 -1.1,0.12l-3.78,1.38a2.19,2.19 0 0 1 -1.87,-0.16l-1.79,-1a2.16,2.16 0 0 0 -1.51,-0.26l-9,1.71a2.21,2.21 0 0 1 -0.81,0l-4.33,-0.77a2.42,2.42 0 0 0 -0.71,0l-4.78,0.69a2.2,2.2 0 0 1 -1.89,-0.62l-1.58,-1.51a2.28,2.28 0 0 0 -1.58,-0.65l-3.79,0a2.34,2.34 0 0 1 -0.38,0l-11.06,-1.94a2.15,2.15 0 0 0 -0.91,0l-8.36,2a2.24,2.24 0 0 1 -0.52,0.06l-10.07,0a2.31,2.31 0 0 0 -0.46,0l-3.41,0.73a2.28,2.28 0 0 1 -1.71,-0.2l-0.94,-0.61a2.24,2.24 0 0 0 -1.2,-0.35l-6.09,0a2.21,2.21 0 0 0 -0.84,0.17l-4.26,1.74a2.19,2.19 0 0 1 -1.84,-0.07l-2.26,-1.14a2.25,2.25 0 0 0 -1.42,-0.2l-4.46,0.86a2.2,2.2 0 0 1 -0.92,0l-10.34,-2.4l-0.23,0l-8.79,-1.09a2.26,2.26 0 0 0 -1.64,0.46l-5,3.88a2.18,2.18 0 0 0 -0.65,0.82l-1.12,2.49a2.25,2.25 0 0 1 -1.3,1.18l-3.84,1.31a2.1,2.1 0 0 1 -1.11,0.09l-8.54,-1.52a2.24,2.24 0 0 0 -1.91,0.57l-3.39,3.17a2.22,2.22 0 0 0 -0.7,1.63l0,0a2.22,2.22 0 0 1 -1.92,2.2l-6.41,0.89a2.18,2.18 0 0 1 -0.72,0l-5.8,-1.1a2.24,2.24 0 0 0 -0.52,0l-9.69,0.44a2.29,2.29 0 0 1 -1.17,-0.27l-1.7,-0.93a2.12,2.12 0 0 0 -0.85,-0.27l-5.09,-0.51a2.28,2.28 0 0 0 -1,0.12l-6,2.13a2.28,2.28 0 0 1 -0.69,0.13l-8.53,0.23a2.07,2.07 0 0 0 -0.35,0l-14.45,2.67a2.34,2.34 0 0 1 -0.95,0l-4.92,-1.26a2.6,2.6 0 0 0 -0.56,-0.07l-15.51,0a2.12,2.12 0 0 1 -0.83,-0.16l-4.86,-1.94a2.21,2.21 0 0 0 -1.58,0l-4.52,1.61a2.21,2.21 0 0 0 -1.48,2.09l0,1a2.22,2.22 0 0 0 2.22,2.23l514,0a2.22,2.22 0 0 0 2.22,-2.23l-0.13,-42.27a2.23,2.23 0 0 0 -2.91,-2.21z"/>
  <circle id="svg_67" fill="#3d7bd9" r="7" cy="258.84" cx="282.93"/>
  <circle id="svg_68" fill="#3d7bd9" r="7" cy="214.84" cx="618.93"/>
  <circle id="svg_69" fill="#3d7bd9" r="7" cy="261.84" cx="444.93"/>
  <circle id="svg_70" fill="#3d7bd9" r="7" cy="236.84" cx="535.93"/>
  <path id="svg_71" stroke-miterlimit="10" stroke="#3d7bd9" fill="none" d="m671.409999,215.000002a2.93,2.93 0 0 0 -4.55,-2.43l-7.74,5.16a3,3 0 0 0 -0.71,0.67l-4.81,6.35a3,3 0 0 1 -2.48,1.16l-1.57,-0.08a2.94,2.94 0 0 1 -2.53,-1.72l-1,-2.13a2.92,2.92 0 0 0 -5.25,-0.17l-2,3.83a2.92,2.92 0 0 1 -2.59,1.55l-9.92,0a2.91,2.91 0 0 1 -2.84,-2.22l-2.38,-9.53a2.93,2.93 0 0 0 -5.14,-1.11l-14.3,18.08a2.91,2.91 0 0 1 -3.5,0.85l-9.19,-4.15a2.93,2.93 0 0 0 -3,0.31l-3.29,2.43a2.72,2.72 0 0 0 -0.43,0.4l-8.68,9.61a2.93,2.93 0 0 1 -2.36,1l-5.67,-0.36a3.16,3.16 0 0 0 -0.92,0.08l-5.11,1.31a2.92,2.92 0 0 1 -3.15,-1.18l-0.58,-0.86a2.93,2.93 0 0 0 -2.5,-1.27l-5.7,0.17a2.82,2.82 0 0 0 -1.79,0.68l-1.4,1.17a2.93,2.93 0 0 1 -4.45,-0.83l-1.48,-2.68a2.93,2.93 0 0 0 -3.83,-1.23l-9.59,4.61l-10.61,5.48a2.91,2.91 0 0 1 -2.26,0.17l-8.45,-2.8a3,3 0 0 0 -1.18,-0.14l-16.36,1.4a3,3 0 0 0 -2.5,1.93l-2.37,6.62a2.93,2.93 0 0 1 -4.16,1.58l-0.1,-0.05a2.91,2.91 0 0 0 -3.71,0.76l-1.86,2.38a3,3 0 0 1 -2,1.11l-5.12,0.55a3,3 0 0 0 -0.84,0.21l-8.11,3.47a3.06,3.06 0 0 1 -1.15,0.23l-3.9,0a2.93,2.93 0 0 1 -2.42,-1.28l-0.56,-0.82a2.93,2.93 0 0 0 -3.26,-1.15l-9.09,2.75a2.94,2.94 0 0 1 -1.9,-0.07l-4.22,-1.62a2.88,2.88 0 0 0 -1,-0.2l-9.06,0a2.81,2.81 0 0 0 -1.14,0.24l-9,3.82a2.9,2.9 0 0 1 -2,0.11l-4.45,-1.33a2.94,2.94 0 0 0 -2.57,0.44l-1.95,1.43a2.93,2.93 0 0 1 -3.93,-0.43l-0.29,-0.33a2.93,2.93 0 0 0 -3.24,-0.81l-7.25,2.77a2.92,2.92 0 0 1 -2,0l-3.18,-1.14a3,3 0 0 0 -1.8,-0.05l-3,0.87a2.93,2.93 0 0 1 -3.43,-1.5l-1.12,-2.25a2.94,2.94 0 0 0 -2.62,-1.62l-2.6,0a2.9,2.9 0 0 1 -1,-0.16l-10.09,-3.54a2.9,2.9 0 0 0 -2.24,0.12l-7.37,3.54a3,3 0 0 1 -1.27,0.29l-9.31,0a3.06,3.06 0 0 0 -1.15,0.23l-1.9,0.82a2.94,2.94 0 0 1 -3.46,-0.89l0,0a2.92,2.92 0 0 0 -2.31,-1.13l-4.7,0a2.94,2.94 0 0 0 -1.86,0.66l-2.73,2.24a2.91,2.91 0 0 1 -3.93,-0.2l-0.62,-0.62a2.93,2.93 0 0 0 -3.13,-0.67l-2.72,1.05a3,3 0 0 1 -2.29,-0.08l-9.57,-4.44a2.37,2.37 0 0 0 -0.53,-0.18l-7.51,-1.85a2.91,2.91 0 0 0 -3.16,1.26l-4.72,7.36a3,3 0 0 0 -0.39,0.92l-1.43,6.25a3,3 0 0 1 -1.2,1.76l-3.12,2.14a2.9,2.9 0 0 1 -2.63,0.34l-6.42,-2.28a2.93,2.93 0 0 0 -3.59,1.44l-3.38,6.32a3,3 0 0 0 -0.34,1.38l0,2.85a2.94,2.94 0 0 1 -2.15,2.82l-5.62,1.56a2.88,2.88 0 0 1 -1.81,-0.08l-4.9,-1.85a2.88,2.88 0 0 0 -1.3,-0.18l-8.45,0.77a2.9,2.9 0 0 1 -2.43,-0.94l-1,-1.11a2.84,2.84 0 0 0 -1.59,-0.9l-3.85,-0.78a3,3 0 0 0 -2.28,0.49l-5.07,3.61a3,3 0 0 1 -1.54,0.54l-7.77,0.41a3.06,3.06 0 0 0 -0.86,0.18l-13.49,5a2.86,2.86 0 0 1 -2.34,-0.14l-3.9,-2a2.93,2.93 0 0 0 -1.33,-0.32l-14.5,0a2.93,2.93 0 0 1 -1.84,-0.65l-3.51,-2.81a2.93,2.93 0 0 0 -3.53,-0.1l-3.76,2.68a2.94,2.94 0 0 0 -1.23,2.39"/>
  <rect id="svg_72" opacity="0.2" fill="#f2f2f2" height="0.1" width="585" y="368.79" x="122.93"/>
  <circle id="svg_73" opacity="0.3" fill="#3d7bd9" r="5" cy="368.84" cx="212.93"/>
  <circle id="svg_74" opacity="0.3" fill="#3d7bd9" r="5" cy="368.84" cx="285.93"/>
  <circle id="svg_75" opacity="0.3" fill="#3d7bd9" r="5" cy="368.84" cx="358.93"/>
  <circle id="svg_76" opacity="0.3" fill="#3d7bd9" r="5" cy="368.84" cx="431.93"/>
  <circle id="svg_77" opacity="0.3" fill="#3d7bd9" r="5" cy="368.84" cx="504.93"/>
  <circle id="svg_78" opacity="0.3" fill="#3d7bd9" r="5" cy="368.84" cx="577.93"/>
  <circle id="svg_79" opacity="0.3" fill="#3d7bd9" r="5" cy="368.84" cx="650.93"/>
 </g>
</svg>