<svg width="694" height="420" xmlns="http://www.w3.org/2000/svg">
 <title>version control</title>

 <g>
  <title>background</title>
  <rect x="-1" y="-1" width="732.528567" height="444.106625" id="canvas_background" fill="none"/>
 </g>
 <g>
  <title>Layer 1</title>
  <path d="m395.69506,75.94562c-42.92312,-1.33195 -83.80354,-13.69839 -122.84686,-27.23102s-77.70198,-28.52745 -119.59712,-35.69631c-26.94633,-4.61151 -57.75918,-5.26269 -79.47276,7.6306c-20.89119,12.43156 -27.6427,33.83159 -31.2771,53.70431c-2.72581,14.9593 -4.33741,30.69409 3.15025,44.69438c5.19296,9.7203 14.41825,17.8896 20.79835,27.20142c22.1911,32.39307 6.50611,72.33979 -17.54861,103.96921c-11.27461,14.83498 -24.36642,29.00695 -33.07441,44.7891s-12.73367,33.89078 -5.12,50.00444c7.554,15.98342 25.54695,27.96507 45.03214,36.40077c39.58716,17.13186 86.21763,22.03936 131.72727,24.81574c100.68894,6.15066 201.9217,3.48676 302.87592,0.82285c37.36539,-0.98861 74.88996,-1.98905 111.64519,-7.14518c20.41369,-2.86518 41.49058,-7.41158 56.30675,-18.35134c18.80871,-13.92925 23.4711,-37.51961 10.87005,-54.98297c-21.14321,-29.29703 -79.5855,-36.57836 -94.38177,-68.01835c-8.13762,-17.30354 0.21885,-36.58428 12.0373,-52.63282c25.36125,-34.4354 67.86655,-64.63815 70.1082,-103.99881c1.53866,-27.02975 -18.89492,-54.10093 -50.49037,-66.89358c-33.12083,-13.40832 -79.04167,-11.72118 -103.46115,10.4721c-25.17555,22.82669 -69.3853,31.61758 -107.28127,30.44546z" fill="#3d7bd9" opacity="0.90" id="svg_1" stroke="null"/>
  <g opacity="0.8" id="svg_27">
   <line x1="36.04" y1="194.49" x2="661.1" y2="194.49" fill="none" stroke="#3f3d56" stroke-miterlimit="10" stroke-width="3" id="svg_28"/>
   <path d="m91.570001,194.480002s29.89,4.15 14.41,-27.92s42,-26 42,-26" fill="none" stroke="#3f3d56" stroke-miterlimit="10" stroke-width="3" id="svg_29"/>
   <path d="m290.640001,194.480002s29.89,-4.14 14.41,27.93s42,26 42,26" fill="none" stroke="#3f3d56" stroke-miterlimit="10" stroke-width="3" id="svg_30"/>
   <path d="m577.270001,194.480002s-29.9,-4.14 -14.41,27.93s-42,26 -42,26" fill="none" stroke="#3f3d56" stroke-miterlimit="10" stroke-width="3" id="svg_31"/>
   <line x1="520.86" y1="248.4" x2="355.93" y2="248.4" fill="none" stroke="#3f3d56" stroke-miterlimit="10" stroke-width="3" id="svg_32"/>
   <circle cx="36.04" cy="194.49" r="18.25" fill="#ffffff" id="svg_33"/>
   <circle cx="148.29" cy="140.3" r="18.25" fill="#3acc6c" id="svg_34"/>
   <circle cx="148.29" cy="194.49" r="18.25" fill="#ffffff" id="svg_35"/>
   <circle cx="220.73" cy="194.49" r="18.25" fill="#ffffff" id="svg_36"/>
   <circle cx="347.35" cy="248.13" r="18.25" fill="#ff6584" id="svg_37"/>
   <circle cx="443.03" cy="248.13" r="18.25" fill="#ff6584" id="svg_38"/>
   <circle cx="438.04" cy="194.49" r="18.25" fill="#ffffff" id="svg_39"/>
   <circle cx="656.48" cy="194.49" r="18.25" fill="#ffffff" id="svg_40"/>
   <circle cx="567.12" cy="194.49" r="18.25" fill="#ffffff" id="svg_41"/>
  </g>
 </g>
</svg>